<?xml version="1.0" encoding="UTF-8"?><svg id="a" xmlns="http://www.w3.org/2000/svg" viewBox="0 0 420.64 253.17"><defs><style>.b{fill:#fff;}</style></defs><polyline class="b" points="153.14 209.29 132.41 188.45 139.15 152.61 169.73 152.61"/><polygon class="b" points="171.77 146.93 140.29 146.93 143.13 131.41 175.99 131.41 171.77 146.93"/><rect class="b" x="253.47" y="115.03" width="37.25" height="15.52"/><polygon class="b" points="245.12 82.16 196.13 82.16 200.2 66.64 245.12 66.64 245.12 82.16"/><path class="b" d="M261.56,0h-25.79c41.77,41.82,84.04,84.1,124.88,124.94-43.15,43.15-84.73,84.73-128.17,128.24h25.78c40.55-40.6,128.19-128.24,128.19-128.24,0,0-72.59-72.58-124.89-124.94Z"/><g><path class="b" d="M290.72,194.87h0c-8.63,8.64-17.27,17.29-25.96,25.98,8.69-8.7,17.33-17.34,25.96-25.98Z"/><path class="b" d="M290.72,186v-49.66l-36.25,.28v85.5c13.29-13.31,26.04-25.91,36.25-36.12Z"/></g><path class="b" d="M103.43,167.99c-13.88-14.1-28.15-28.61-42.52-43.04C101.75,84.1,144.02,41.83,185.8,0h-25.79C107.7,52.36,35.12,124.94,35.12,124.94c0,0,103.6,104.88,127.35,128.24h26.23c-29-28.09-57.56-57.03-85.26-85.19Z"/><path class="b" d="M406.55,123.56c-25.43,25.43-84.3,84.47-109.37,109.57h14.08c29.35-29.38,84.74-84.94,105.85-106.05l3.52-3.52-3.52-3.52C393.26,96.19,320.91,24.47,296.53,.05h-14.1c23.28,23.32,97.11,96.5,124.13,123.52Z"/><path class="b" d="M108.81,233.14h15.15C91.95,201.09,40.15,149.47,15.16,124.48,43.65,95.98,114.62,24.85,139.39,.05h-15.16C98.28,26.03,29.46,95.02,3.79,120.69l-3.79,3.79,3.79,3.79c20.66,20.66,70.02,69.84,105.02,104.87Z"/><polygon class="b" points="225.73 251.06 195.52 251.06 160 216.15 194.58 87.84 247.5 87.84 247.5 229.25 225.73 251.06"/></svg>