<?xml version="1.0" encoding="UTF-8"?><svg id="a" xmlns="http://www.w3.org/2000/svg" viewBox="0 0 864.69 538.51"><defs><style>.b{fill:#fff;}</style></defs><g><g><path class="b" d="M328.04,525.85c-5.75,0-9.68-1.6-11.8-4.81-2.12-3.21-2.47-8.34-1.04-15.39,1.47-7.13,3.8-12.24,7.01-15.33,3.21-3.09,7.77-4.64,13.67-4.64,1.47,0,2.87,.16,4.22,.48,1.35,.32,2.46,.67,3.33,1.07l-1.07,2.85c-.75-.28-1.66-.54-2.73-.77-1.07-.24-2.22-.36-3.45-.36-4.36,0-7.77,1.29-10.22,3.86-2.46,2.58-4.3,6.86-5.53,12.84-1.23,6.1-1.15,10.45,.24,13.05,1.39,2.6,4.26,3.89,8.62,3.89,1.39,0,2.62-.09,3.71-.27,1.09-.18,2.07-.41,2.94-.68l.65,2.73c-1.11,.48-2.43,.84-3.95,1.1-1.53,.26-3.06,.39-4.61,.39Z"/><path class="b" d="M352.58,525.85c-4.28,0-7.2-1.27-8.77-3.8-1.57-2.54-1.83-6.52-.8-11.95,1.03-5.51,2.78-9.51,5.26-12.01,2.48-2.5,5.95-3.74,10.43-3.74s7.26,1.27,8.83,3.8c1.56,2.54,1.83,6.52,.8,11.95-1.07,5.51-2.84,9.51-5.32,12.01-2.48,2.5-5.95,3.74-10.43,3.74Zm.36-2.5c2.62,0,4.76-1.03,6.45-3.09,1.68-2.06,2.98-5.45,3.89-10.16,.95-4.72,1.02-8.1,.21-10.16-.81-2.06-2.53-3.09-5.14-3.09s-4.75,1.03-6.42,3.09c-1.66,2.06-2.97,5.45-3.92,10.16-.91,4.72-.96,8.1-.15,10.16,.81,2.06,2.51,3.09,5.08,3.09Z"/><path class="b" d="M372.32,525.07l5.82-28.35c2.02-.63,4.28-1.16,6.78-1.57,2.5-.42,4.99-.64,7.49-.68h1.25l-1.01,3.8c-1.63-.16-3.35-.2-5.17-.12-1.82,.08-3.43,.26-4.81,.54l-5.41,26.39h-4.93Z"/><path class="b" d="M404.23,525.85c-1.03,0-2.14-.1-3.33-.3-1.19-.2-2.36-.44-3.51-.71l-2.79,13.67h-4.93l8.68-42.2c1.94-.63,3.88-1.12,5.82-1.46,1.94-.34,3.86-.5,5.77-.5,4.4,0,7.44,1.23,9.12,3.68,1.68,2.46,1.97,6.48,.86,12.07-1.11,5.67-2.87,9.71-5.29,12.12-2.42,2.42-5.88,3.62-10.4,3.62Zm-.53-2.67c3.13,0,5.54-.97,7.22-2.91,1.68-1.94,3-5.33,3.95-10.16,.99-4.83,1.01-8.21,.06-10.13-.95-1.92-2.97-2.88-6.06-2.88-.83,0-1.76,.06-2.79,.18-1.03,.12-2.06,.3-3.09,.54l-5.05,24.55c.95,.28,1.92,.49,2.91,.62,.99,.14,1.94,.21,2.85,.21Z"/><path class="b" d="M435.38,525.85c-4.28,0-7.2-1.27-8.77-3.8-1.57-2.54-1.83-6.52-.8-11.95,1.03-5.51,2.78-9.51,5.26-12.01,2.48-2.5,5.95-3.74,10.43-3.74s7.26,1.27,8.83,3.8c1.56,2.54,1.83,6.52,.8,11.95-1.07,5.51-2.84,9.51-5.32,12.01-2.48,2.5-5.95,3.74-10.43,3.74Zm.36-2.5c2.62,0,4.76-1.03,6.45-3.09,1.68-2.06,2.98-5.45,3.89-10.16,.95-4.72,1.02-8.1,.21-10.16-.81-2.06-2.53-3.09-5.14-3.09s-4.75,1.03-6.42,3.09c-1.66,2.06-2.97,5.45-3.92,10.16-.91,4.72-.96,8.1-.15,10.16,.81,2.06,2.51,3.09,5.08,3.09Z"/><path class="b" d="M455.11,525.07l5.82-28.35c2.02-.63,4.28-1.16,6.78-1.57,2.5-.42,4.99-.64,7.49-.68h1.25l-1.01,3.8c-1.63-.16-3.35-.2-5.17-.12-1.82,.08-3.43,.26-4.81,.54l-5.41,26.39h-4.93Z"/><path class="b" d="M498.02,523.95c-1.94,.63-3.88,1.11-5.82,1.43-1.94,.32-3.86,.48-5.77,.48-4.4,0-7.44-1.23-9.12-3.68-1.68-2.46-1.97-6.48-.86-12.07,1.11-5.63,2.88-9.66,5.32-12.1,2.44-2.44,6.01-3.66,10.73-3.66,1.78,0,3.67,.17,5.68,.5,2,.34,3.83,.82,5.5,1.46l-5.65,27.64Zm-10.52-.77c.95,0,1.93-.08,2.94-.24,1.01-.16,2.01-.36,3-.59l4.99-24.61c-.95-.2-1.92-.36-2.91-.48-.99-.12-1.94-.18-2.85-.18-3.13,0-5.53,.96-7.19,2.88-1.66,1.92-2.99,5.3-3.98,10.13-.95,4.83-.96,8.22-.03,10.16,.93,1.94,2.94,2.91,6.03,2.91Z"/><path class="b" d="M515.14,525.73c-2.54,0-4.34-.69-5.41-2.08-1.07-1.39-1.29-3.53-.65-6.42l3.92-19.32h-4.58l.48-2.32,4.93-.59,3.92-7.19h2.32l-1.55,7.31h7.79l-.65,2.79h-7.73l-3.86,19.14c-.4,2.02-.37,3.48,.09,4.37,.46,.89,1.38,1.34,2.76,1.34,.75,0,1.46-.1,2.11-.3,.65-.2,1.24-.44,1.75-.71l.95,2.26c-.75,.52-1.71,.93-2.88,1.25-1.17,.32-2.41,.47-3.71,.47Z"/><path class="b" d="M526.02,525.07l6.18-29.96h4.93l-6.18,29.96h-4.93Zm9.99-35.54c-.87,0-1.58-.28-2.11-.83-.54-.55-.8-1.27-.8-2.14s.27-1.58,.8-2.14c.53-.55,1.24-.83,2.11-.83s1.58,.28,2.14,.83c.55,.56,.83,1.27,.83,2.14s-.28,1.58-.83,2.14c-.56,.56-1.27,.83-2.14,.83Z"/><path class="b" d="M550.86,525.85c-4.28,0-7.2-1.27-8.77-3.8-1.57-2.54-1.83-6.52-.8-11.95,1.03-5.51,2.78-9.51,5.26-12.01,2.48-2.5,5.95-3.74,10.43-3.74s7.26,1.27,8.83,3.8c1.56,2.54,1.83,6.52,.8,11.95-1.07,5.51-2.84,9.51-5.32,12.01-2.48,2.5-5.95,3.74-10.43,3.74Zm.36-2.5c2.62,0,4.76-1.03,6.45-3.09,1.68-2.06,2.98-5.45,3.89-10.16,.95-4.72,1.02-8.1,.21-10.16-.81-2.06-2.53-3.09-5.14-3.09s-4.75,1.03-6.42,3.09c-1.66,2.06-2.97,5.45-3.92,10.16-.91,4.72-.96,8.1-.15,10.16,.81,2.06,2.51,3.09,5.08,3.09Z"/><path class="b" d="M588.01,497.08c-1.11,0-2.25,.07-3.42,.21-1.17,.14-2.33,.33-3.48,.56l-5.65,27.22h-4.93l5.94-28.77c2.06-.59,4.16-1.07,6.3-1.43,2.14-.36,4.34-.54,6.6-.54,3.92,0,6.61,.86,8.05,2.58,1.45,1.72,1.81,4.25,1.1,7.58l-4.22,20.57h-4.93l4.22-20.62c.51-2.58,.37-4.45-.45-5.62-.81-1.17-2.53-1.75-5.14-1.75Z"/></g><g><path class="b" d="M28.52,396.08c16.88,17.83,28.28,24.01,41.83,24.01,6.18,0,9.27-2.14,9.27-6.18,0-2.14-.95-3.8-2.85-5.23-1.66-.95-3.57-2.14-5.47-2.85l-4.28-1.66-4.52-1.66-4.28-1.66c-21.87-8.32-33.04-24.24-33.04-46.35,0-32.8,25.91-55.14,63.94-55.14,22.1,0,39.69,5.94,58.47,19.97l-22.58,39.93c-12.12-10.46-23.53-16.4-32.33-16.4-4.52,0-7.84,2.62-7.84,6.66,0,2.14,.95,3.8,3.09,5.47s4.52,2.85,7.37,4.04l4.28,2.14,4.52,1.9,4.28,2.14c22.1,10.22,30.9,22.34,30.9,43.02,0,34.23-28.52,57.76-70.12,57.76-25.67,0-47.3-8.79-69.17-28.76l28.52-41.12Z"/><path class="b" d="M166.85,303.38h58.23l-28.76,158.54h-58l28.52-158.54Z"/><path class="b" d="M296.86,461.92h-58.23l19.97-111.24h-34.7l8.56-47.3h124.79l-8.56,47.3h-31.61l-20.2,111.24Z"/><path class="b" d="M490.1,443.86c-24.96,16.64-41.83,22.11-70.59,22.11-24.72,0-41.6-5.71-55.62-19.73s-20.44-31.61-20.44-53.95c0-26.62,9.27-49.91,26.38-67.03,17.11-17.35,39.46-25.91,67.03-25.91,23.06,0,41.6,6.18,55.14,18.3,7.37,6.42,10.93,11.88,15.69,22.58l-50.63,17.83c-6.89-9.27-12.83-12.83-21.39-12.83-7.84,0-14.02,2.61-19.01,8.08-8.79,9.27-14.02,23.29-14.02,38.27,0,17.83,10.22,29.71,25.67,29.71,3.8,0,7.13-.71,13.55-2.61l2.38-14.26h-20.68l6.42-36.6h73.92l-13.79,76.06Z"/><path class="b" d="M568.06,303.38h64.65l21.87,158.54h-56.09l-.48-20.44h-40.41l-8.08,20.44h-61.08l79.62-158.54Zm28.28,100.78l-1.66-58-22.34,58h24.01Z"/><path class="b" d="M704.73,303.38h58.47l7.37,81.29,36.84-81.29h57.28l-6.42,158.54h-54.19l7.37-83.43-37.79,83.43h-32.8l-7.61-82.71-21.87,82.71h-55.62l48.96-158.54Z"/></g></g><g><polyline class="b" points="389.63 209.29 368.89 188.45 375.63 152.61 406.21 152.61"/><polygon class="b" points="408.25 146.93 376.77 146.93 379.61 131.41 412.47 131.41 408.25 146.93"/><rect class="b" x="489.95" y="115.03" width="37.25" height="15.52"/><polygon class="b" points="481.6 82.16 432.61 82.16 436.69 66.64 481.6 66.64 481.6 82.16"/><path class="b" d="M498.04,0h-25.79c41.77,41.82,84.04,84.1,124.88,124.94-43.15,43.15-84.73,84.73-128.17,128.24h25.78c40.55-40.6,128.19-128.24,128.19-128.24,0,0-72.59-72.58-124.89-124.94Z"/><g><path class="b" d="M527.2,194.87h0c-8.63,8.64-17.27,17.29-25.96,25.98,8.69-8.7,17.33-17.34,25.96-25.98Z"/><path class="b" d="M527.2,186v-49.66l-36.25,.28v85.5c13.29-13.31,26.04-25.91,36.25-36.12Z"/></g><path class="b" d="M339.91,167.99c-13.88-14.1-28.15-28.61-42.52-43.04C338.24,84.1,380.51,41.83,422.28,0h-25.79c-52.3,52.36-124.89,124.94-124.89,124.94,0,0,103.6,104.88,127.35,128.24h26.23c-29-28.09-57.56-57.03-85.26-85.19Z"/><path class="b" d="M643.04,123.56c-25.43,25.43-84.3,84.47-109.37,109.57h14.08c29.35-29.38,84.74-84.94,105.85-106.05l3.52-3.52-3.52-3.52C629.75,96.19,557.39,24.47,533.01,.05h-14.1c23.28,23.32,97.11,96.5,124.13,123.52Z"/><path class="b" d="M345.3,233.14h15.15c-32.02-32.04-83.82-83.66-108.81-108.66C280.14,95.98,351.11,24.85,375.87,.05h-15.16c-25.94,25.99-94.77,94.98-120.44,120.65l-3.79,3.79,3.79,3.79c20.66,20.66,70.02,69.84,105.02,104.87Z"/><polygon class="b" points="462.21 251.06 432 251.06 396.49 216.15 431.06 87.84 483.98 87.84 483.98 229.25 462.21 251.06"/></g></svg>