<?xml version="1.0" encoding="UTF-8"?><svg id="a" xmlns="http://www.w3.org/2000/svg" viewBox="0 0 1147.27 239.17"><defs><style>.b{fill:#00476d;}.c{fill:#4f4b49;}</style></defs><g><path class="b" d="M311.1,96.74c16.88,17.83,28.28,24.01,41.83,24.01,6.18,0,9.27-2.14,9.27-6.18,0-2.14-.95-3.8-2.85-5.23-1.66-.95-3.57-2.14-5.47-2.85l-4.28-1.66-4.52-1.66-4.28-1.66c-21.87-8.32-33.04-24.24-33.04-46.35,0-32.8,25.91-55.14,63.94-55.14,22.1,0,39.69,5.94,58.47,19.97l-22.58,39.93c-12.12-10.46-23.53-16.4-32.33-16.4-4.52,0-7.84,2.61-7.84,6.65,0,2.14,.95,3.8,3.09,5.47,2.14,1.66,4.52,2.85,7.37,4.04l4.28,2.14,4.52,1.9,4.28,2.14c22.1,10.22,30.9,22.34,30.9,43.02,0,34.23-28.52,57.76-70.12,57.76-25.67,0-47.3-8.79-69.17-28.76l28.52-41.12Z"/><path class="b" d="M449.43,4.04h58.23l-28.76,158.54h-58L449.43,4.04Z"/><path class="b" d="M579.44,162.58h-58.23l19.97-111.24h-34.7l8.56-47.3h124.79l-8.56,47.3h-31.61l-20.2,111.24Z"/><path class="b" d="M772.68,144.51c-24.96,16.64-41.83,22.1-70.59,22.1-24.72,0-41.6-5.7-55.62-19.73-13.55-13.55-20.44-31.61-20.44-53.95,0-26.62,9.27-49.91,26.38-67.03,17.11-17.35,39.46-25.91,67.03-25.91,23.06,0,41.6,6.18,55.14,18.3,7.37,6.42,10.93,11.88,15.69,22.58l-50.63,17.83c-6.89-9.27-12.83-12.84-21.39-12.84-7.84,0-14.02,2.61-19.01,8.08-8.79,9.27-14.02,23.29-14.02,38.27,0,17.83,10.22,29.71,25.67,29.71,3.8,0,7.13-.71,13.55-2.61l2.38-14.26h-20.68l6.42-36.6h73.92l-13.79,76.06Z"/><path class="b" d="M850.64,4.04h64.65l21.87,158.54h-56.09l-.47-20.44h-40.41l-8.08,20.44h-61.09L850.64,4.04Zm28.29,100.78l-1.66-58-22.34,58h24.01Z"/><path class="b" d="M987.3,4.04h58.47l7.37,81.29,36.84-81.29h57.28l-6.42,158.54h-54.19l7.37-83.43-37.79,83.43h-32.8l-7.61-82.71-21.87,82.71h-55.62L987.3,4.04Z"/></g><g><path class="c" d="M865.61,226.51c-5.75,0-9.68-1.6-11.8-4.81-2.12-3.21-2.47-8.34-1.04-15.39,1.46-7.13,3.8-12.24,7.01-15.33,3.21-3.09,7.77-4.64,13.67-4.64,1.47,0,2.87,.16,4.22,.48,1.35,.32,2.46,.67,3.33,1.07l-1.07,2.85c-.75-.28-1.66-.54-2.73-.77-1.07-.24-2.22-.36-3.45-.36-4.36,0-7.77,1.29-10.22,3.86-2.46,2.58-4.3,6.86-5.53,12.84-1.23,6.1-1.15,10.45,.24,13.05,1.39,2.6,4.26,3.89,8.62,3.89,1.39,0,2.62-.09,3.71-.27,1.09-.18,2.07-.41,2.94-.68l.65,2.73c-1.11,.48-2.43,.84-3.95,1.1-1.53,.26-3.06,.39-4.61,.39Z"/><path class="c" d="M890.16,226.51c-4.28,0-7.2-1.27-8.77-3.8-1.57-2.54-1.83-6.52-.8-11.95,1.03-5.51,2.78-9.51,5.26-12.01,2.48-2.5,5.95-3.74,10.43-3.74s7.26,1.27,8.83,3.8c1.57,2.54,1.83,6.52,.8,11.95-1.07,5.51-2.84,9.51-5.32,12.01-2.48,2.5-5.95,3.74-10.43,3.74Zm.36-2.5c2.62,0,4.76-1.03,6.45-3.09,1.68-2.06,2.98-5.45,3.89-10.16,.95-4.71,1.02-8.1,.21-10.16-.81-2.06-2.53-3.09-5.14-3.09s-4.75,1.03-6.42,3.09c-1.66,2.06-2.97,5.45-3.92,10.16-.91,4.72-.96,8.1-.15,10.16,.81,2.06,2.5,3.09,5.08,3.09Z"/><path class="c" d="M909.89,225.73l5.83-28.35c2.02-.63,4.28-1.16,6.78-1.58s4.99-.64,7.49-.68h1.25l-1.01,3.8c-1.62-.16-3.35-.2-5.17-.12-1.82,.08-3.43,.26-4.81,.54l-5.41,26.39h-4.93Z"/><path class="c" d="M941.81,226.51c-1.03,0-2.14-.1-3.33-.3-1.19-.2-2.36-.44-3.51-.71l-2.79,13.67h-4.93l8.68-42.2c1.94-.63,3.88-1.12,5.82-1.46,1.94-.34,3.86-.51,5.77-.51,4.4,0,7.44,1.23,9.12,3.69,1.68,2.46,1.97,6.48,.86,12.07-1.11,5.67-2.87,9.71-5.29,12.12-2.42,2.42-5.88,3.63-10.4,3.63Zm-.54-2.67c3.13,0,5.54-.97,7.22-2.91,1.68-1.94,3-5.33,3.95-10.16,.99-4.83,1.01-8.21,.06-10.13-.95-1.92-2.97-2.88-6.06-2.88-.83,0-1.76,.06-2.79,.18-1.03,.12-2.06,.3-3.09,.54l-5.05,24.55c.95,.28,1.92,.49,2.91,.62,.99,.14,1.94,.21,2.85,.21Z"/><path class="c" d="M972.95,226.51c-4.28,0-7.2-1.27-8.77-3.8-1.57-2.54-1.83-6.52-.8-11.95,1.03-5.51,2.78-9.51,5.26-12.01s5.95-3.74,10.43-3.74,7.26,1.27,8.83,3.8c1.56,2.54,1.83,6.52,.8,11.95-1.07,5.51-2.84,9.51-5.32,12.01-2.48,2.5-5.95,3.74-10.43,3.74Zm.36-2.5c2.62,0,4.76-1.03,6.45-3.09,1.68-2.06,2.98-5.45,3.89-10.16,.95-4.71,1.02-8.1,.21-10.16-.81-2.06-2.53-3.09-5.14-3.09s-4.75,1.03-6.42,3.09c-1.66,2.06-2.97,5.45-3.92,10.16-.91,4.72-.96,8.1-.15,10.16,.81,2.06,2.51,3.09,5.08,3.09Z"/><path class="c" d="M992.69,225.73l5.82-28.35c2.02-.63,4.28-1.16,6.78-1.58,2.5-.42,4.99-.64,7.49-.68h1.25l-1.01,3.8c-1.63-.16-3.35-.2-5.17-.12-1.82,.08-3.43,.26-4.81,.54l-5.41,26.39h-4.93Z"/><path class="c" d="M1035.6,224.6c-1.94,.63-3.88,1.11-5.82,1.43-1.94,.32-3.86,.48-5.77,.48-4.4,0-7.44-1.23-9.12-3.69-1.68-2.46-1.97-6.48-.86-12.07,1.11-5.63,2.88-9.66,5.32-12.09s6.01-3.66,10.73-3.66c1.78,0,3.67,.17,5.68,.51,2,.34,3.83,.82,5.5,1.46l-5.65,27.64Zm-10.52-.77c.95,0,1.93-.08,2.94-.24,1.01-.16,2.01-.36,3-.59l4.99-24.61c-.95-.2-1.92-.36-2.91-.48-.99-.12-1.94-.18-2.85-.18-3.13,0-5.53,.96-7.19,2.88-1.66,1.92-2.99,5.3-3.98,10.13-.95,4.83-.96,8.22-.03,10.16,.93,1.94,2.94,2.91,6.03,2.91Z"/><path class="c" d="M1052.72,226.39c-2.54,0-4.34-.69-5.41-2.08-1.07-1.39-1.29-3.53-.65-6.42l3.92-19.32h-4.58l.48-2.32,4.93-.59,3.92-7.19h2.32l-1.55,7.31h7.79l-.65,2.79h-7.73l-3.86,19.14c-.4,2.02-.37,3.48,.09,4.37,.46,.89,1.38,1.34,2.76,1.34,.75,0,1.46-.1,2.11-.3,.65-.2,1.24-.44,1.75-.71l.95,2.26c-.75,.52-1.71,.93-2.88,1.25-1.17,.32-2.41,.48-3.71,.48Z"/><path class="c" d="M1063.59,225.73l6.18-29.96h4.93l-6.18,29.96h-4.93Zm9.99-35.54c-.87,0-1.58-.28-2.11-.83-.54-.55-.8-1.27-.8-2.14s.27-1.58,.8-2.14c.53-.55,1.24-.83,2.11-.83s1.58,.28,2.14,.83c.55,.56,.83,1.27,.83,2.14s-.28,1.58-.83,2.14c-.55,.56-1.27,.83-2.14,.83Z"/><path class="c" d="M1088.44,226.51c-4.28,0-7.2-1.27-8.77-3.8-1.57-2.54-1.83-6.52-.8-11.95,1.03-5.51,2.78-9.51,5.26-12.01,2.48-2.5,5.95-3.74,10.43-3.74s7.26,1.27,8.83,3.8c1.57,2.54,1.83,6.52,.8,11.95-1.07,5.51-2.84,9.51-5.32,12.01-2.48,2.5-5.95,3.74-10.43,3.74Zm.36-2.5c2.62,0,4.76-1.03,6.45-3.09,1.68-2.06,2.98-5.45,3.89-10.16,.95-4.71,1.02-8.1,.21-10.16-.81-2.06-2.53-3.09-5.14-3.09s-4.75,1.03-6.42,3.09c-1.66,2.06-2.97,5.45-3.92,10.16-.91,4.72-.96,8.1-.15,10.16,.81,2.06,2.5,3.09,5.08,3.09Z"/><path class="c" d="M1125.58,197.74c-1.11,0-2.25,.07-3.42,.21-1.17,.14-2.33,.33-3.48,.57l-5.65,27.22h-4.93l5.94-28.77c2.06-.59,4.16-1.07,6.3-1.43,2.14-.36,4.34-.53,6.6-.53,3.92,0,6.61,.86,8.05,2.59s1.81,4.25,1.1,7.58l-4.22,20.57h-4.93l4.22-20.62c.51-2.58,.37-4.45-.45-5.62-.81-1.17-2.53-1.75-5.14-1.75Z"/></g><g><polyline class="c" points="97.7 135.61 84.47 122.32 88.77 99.45 108.28 99.45"/><polygon class="c" points="109.58 95.83 89.5 95.83 91.31 85.93 112.28 85.93 109.58 95.83"/><rect class="c" x="161.7" y="75.48" width="23.77" height="9.9"/><polygon class="c" points="156.38 54.51 125.12 54.51 127.72 44.61 156.38 44.61 156.38 54.51"/><path class="b" d="M166.86,2.1h-16.46c26.65,26.68,53.61,53.65,79.67,79.7-27.53,27.53-54.05,54.06-81.77,81.81h16.45c25.87-25.9,81.78-81.81,81.78-81.81,0,0-46.31-46.3-79.67-79.7Z"/><g><path class="c" d="M185.47,126.42h0c-5.51,5.51-11.02,11.03-16.56,16.57,5.54-5.55,11.06-11.06,16.56-16.57Z"/><path class="c" d="M185.47,120.76v-31.68l-23.12,.18v54.55c8.48-8.49,16.61-16.53,23.12-23.04Z"/></g><path class="b" d="M65.98,109.27c-8.85-9-17.96-18.25-27.12-27.46C64.92,55.75,91.88,28.78,118.53,2.1h-16.46C68.71,35.5,22.4,81.8,22.4,81.8c0,0,66.09,66.91,81.24,81.81h16.73c-18.5-17.92-36.72-36.38-54.39-54.35Z"/><path class="c" d="M259.37,80.92c-16.23,16.23-53.78,53.89-69.77,69.9h8.98c18.73-18.75,54.06-54.19,67.53-67.66l2.25-2.25-2.25-2.25c-15.22-15.22-61.38-60.97-76.93-76.55h-9c14.85,14.88,61.95,61.56,79.19,78.8Z"/><path class="c" d="M69.42,150.83h9.67c-20.43-20.44-53.47-53.37-69.42-69.32C27.85,63.33,73.13,17.95,88.92,2.12h-9.67C62.7,18.7,18.79,62.72,2.42,79.09l-2.42,2.42,2.42,2.42c13.18,13.18,44.67,44.55,67,66.9Z"/><polygon class="c" points="144.01 162.26 124.73 162.26 102.08 139.99 124.13 58.13 157.9 58.13 157.9 148.35 144.01 162.26"/></g></svg>