<svg xmlns="http://www.w3.org/2000/svg" viewBox="0 0 975.64 688.78"><defs><style>.cls-1,.cls-2,.cls-3,.cls-4,.cls-5,.cls-7,.cls-8{fill:#fe5d12;}.cls-2,.cls-3{stroke:#96ff5f;}.cls-2,.cls-3,.cls-5,.cls-7,.cls-8{stroke-width:2px;}.cls-2,.cls-4,.cls-7{fill-rule:evenodd;}.cls-5{stroke:#ed1c24;}.cls-6{opacity:0.8;}.cls-7,.cls-8{stroke:#fff;}</style></defs><g id="bcs"><polygon class="cls-1" points="76.97 202.65 78.61 199.82 80.81 198.13 99.99 199.56 126.9 200.98 128.68 202.02 127.32 207.93 132.56 215.54 134.93 216.01 139.69 219.35 140.65 226.48 143.19 230.29 141.92 230.76 141.92 232 150.79 236 148.1 239.33 153.41 244.56 153.93 243.61 162.98 250.27 162.52 255.97 166.33 258.36 164.72 261.68 166.92 264.54 166.92 268.05 168.94 273.1 167.63 278.33 168.65 282.62 169.63 283.09 169.17 284.99 171.56 287.37 172.99 292.6 177.75 294.51 177.27 298.31 179.65 302.6 180.6 307.35 182.03 310.68 185.36 313.54 187.26 317.34 187.74 321.62 184.88 329.24 186.31 336.84 188.22 340.17 191.54 342.55 194.74 343.03 196.3 346.36 199.63 343.98 198.68 338.75 201.53 338.27 203.91 342.08 208.19 345.41 209.62 349.69 210.57 350.64 213.9 349.69 214.85 351.12 213.03 354.45 216.92 359.21 216.92 363.79 223.94 367.29 226.06 373 225.21 379.66 222.41 383.47 218.16 385.36 215.79 388.32 210.57 391.74 205.96 391.74 203.44 387.74 201.06 374.9 196.78 366.33 186.31 359.67 173.94 345.41 161.1 336.84 156.34 331.61 154.92 327.33 153.97 326.85 153.01 328.28 150.16 327.08 151.11 328.74 149.39 328.74 149.21 324.36 144.74 316.43 144.51 320.08 141.6 319.7 139.83 315.43 140.92 312.58 140.92 310.33 140.22 310.28 140.55 304.97 142.97 301.64 143.76 288.59 142.94 286.65 142.54 283.57 138.74 273.57 137.31 271.2 135.89 271.67 135.41 265.49 133.04 264.06 131.95 265.02 129.92 263.59 129.92 262.46 125.8 262.16 122.52 258.83 123.02 257.88 113.32 250.01 112.57 248.84 108.77 246.94 108.3 245.99 104.06 243.14 102.59 242.06 99.26 245.74 97.17 245.74 93.55 242.16 89.75 235.74 84.74 235.74 79.76 228.87 77.85 227.91 76.43 228.87 72.14 226.96 71.67 225.06 70.24 224.58 69.29 217.92 63.11 213.64 60.52 210.31 57.92 208.88 57.92 207.75 57.21 207.93 56.12 206.03 54.38 205.55 53.99 201.05 55.49 202.74 60.49 202.74 67.39 205.74 70.44 205.74 76.43 202.46 76.97 202.65"/></g><g id="bcn"><polygon class="cls-1" points="80.1 198 126.52 200.91 127.12 194.57 124.37 191.74 125.37 186.04 120.64 185.57 117.8 183.67 115.9 171.3 114.34 170.83 110.93 172.05 110.85 167.5 109.26 165.6 107.59 166.07 107.75 167.97 105.88 167.5 104.95 165.6 105.43 159.88 103.06 157.03 102.59 154.18 100.87 150.73 90.7 140.86 86.89 134.67 84.99 133.72 83.56 134.67 81.18 132.77 80.71 128.49 76.9 125.16 73.57 117.55 75.95 107.56 74.05 101.38 74.52 91.39 70.72 88.53 71.67 86.15 69.77 82.35 72.14 69.03 74.52 65.22 73.38 60.69 71.95 60.21 68.34 54.76 67.06 50.73 68.7 49.97 69.79 47.9 70.01 45.72 68.26 42.33 72.08 34.19 76.44 33.32 86.47 19.1 72.91 11.82 74.92 6 74.92 0.74 0.95 1 0.81 4.33 2.12 8.14 2.64 12.9 1.72 14.32 1.64 15.27 2.6 16.69 2.21 19.08 4.12 18.6 6.02 21.93 5.55 22.89 4.6 22.41 6.5 32.4 7.92 35.25 10.78 37.63 11.73 45.72 13.64 46.67 14.59 49.52 18.87 52.85 17.44 56.18 14.07 55.71 15.92 59.04 15.92 61.66 15.16 62.84 17.25 66.17 20.68 68.08 25.01 76.64 25.5 80.92 24.09 85.2 26.47 85.68 32.18 91.86 31.21 104.94 32.19 104.7 33.61 105.18 34.31 104.64 34.57 105.18 33.61 106.61 36.95 108.03 38.37 113.27 36.95 123.26 39.32 124.21 39.8 130.39 43.6 133.25 44.56 135.62 46.46 136.1 53.59 141.81 54.54 144.19 62.16 146.57 68.81 156.08 70.72 157.03 73.1 163.69 76.43 164.64 81.13 173.21 83.92 174.63 83.92 177.29 86.81 180.34 82.8 188.91 84.85 191.76 83.39 197.47 81.92 197.94 81.92 196.56 80.1 198"/></g><g id="sonora"><polygon class="cls-1" points="86.59 19.33 76.5 33.44 72.11 34.25 68.28 42.36 69.87 45.42 69.79 47.9 68.7 49.97 67.06 50.73 67.86 52.38 77.38 60.94 81.18 61.42 91.65 70.93 97.83 72.36 100.21 69.98 99.26 70.1 100.21 69.74 102.14 69.74 109.72 74.37 110.2 79.74 108.98 79.74 114 81.89 120.67 84.02 122.09 83.42 120.19 82.41 120.84 81.9 122.92 85.68 122.92 84.04 125.05 84.25 126.92 86.63 126.92 89.02 125.7 92.81 125.32 94.72 123.95 99.47 124.08 103.75 129.92 113.74 129.92 119.48 131.35 119.45 133.38 122.3 132.97 132.77 135.38 133.25 137.78 140.38 143.49 148.47 142.07 152.75 142.28 154.65 143.92 156.08 143.92 154.91 146.9 154.65 148.53 156.56 147.04 160.36 147.92 162.26 147.92 167.97 150.06 168.45 153.97 173.68 156.92 175.11 156.92 177.29 156.08 175.58 155.02 176.06 160.44 182.72 162.43 187.48 170.57 191.28 170.12 192.71 173.35 198.15 180.12 207.45 183.93 206.98 187.26 211.74 188.22 209.84 187.26 209.36 188.69 206.5 189.64 208.88 190.25 209.06 191.07 208.88 195.83 211.26 195.68 210.31 197.92 211.26 197.92 212.1 194.92 212.69 194.92 215.83 197.34 216.02 196.1 217.44 196.68 217.92 194.82 218.87 196.28 223.35 196.78 229.74 199.12 229.74 200.11 232.74 198.5 232.74 201.06 233.67 203.91 237.66 212 239.74 215.29 239.74 217.71 245.98 215.33 244.08 219.61 253.12 223.89 255.97 225.32 255.02 228.14 254.91 227.12 253.6 228.92 252.65 228.92 254.38 230.85 255.17 231.5 256.74 230.21 256.74 236.26 261.92 237.21 264.89 236.74 269 240.06 267.48 255.26 259.15 261.8 253.02 264.86 245.59 263.98 243.84 261.37 244.28 258.75 236.42 260.93 233.37 259.62 229.01 260.06 225.08 256.57 222.9 256.13 219.41 251.77 214.62 248.28 207.2 245.67 200.66 248.28 197.6 253.51 197.17 260.49 199.78 263.11 197.17 261.37 187.14 263.55 180.16 260.49 157.91 263.98 157.04 265.29 153.12 266.6 136.98 264.42 117.35 262.67 114.3 260.06 93.8 257.88 92.49 259.19 88.57 260.88 73.95 185.92 73.95 86.59 19.33"/></g><g id="chuchuahua"><polygon class="cls-1" points="260.51 73.95 273.92 73.95 273.92 59.18 311.66 58.96 321.92 64.29 328.39 64.63 329.66 65.29 330.92 68.96 330.92 72.23 335.27 75.62 346.21 82.94 360.52 103.6 366.34 104.93 375.75 113.93 378.45 118.59 384.46 146.9 394.13 153.9 401.47 159.56 407.13 162.15 414.14 166.74 414.84 166.74 415.81 168.52 429.8 175.2 430.59 177.22 408.79 218.16 418.38 260.44 407.48 257.37 399.63 258.24 391.77 270.44 389.16 270.88 385.67 269.57 383.49 266.08 378.25 265.21 374.33 267.39 372.58 266.95 371.27 264.77 366.48 267.82 359.06 265.64 355.14 259.97 349.91 259.54 341.62 253.78 339.87 256.74 337.13 256.74 336.03 261.25 333.92 263.03 333.92 268.05 325.71 268.7 324.94 271.31 328.92 277.68 325.92 282.74 323.45 282.74 323.3 293.04 316.88 296.79 303.92 295.3 303.92 289.81 302.64 286.58 299.88 285.71 298.73 281.78 296.19 278.29 285.32 277.42 282.72 259.97 278.8 255.61 279.24 249.94 273.57 246.45 271.83 243.84 267.47 242.96 264.86 245.58 263.98 243.84 261.37 244.27 258.75 236.42 260.93 233.37 259.62 229.01 260.06 225.08 256.57 222.9 256.13 219.41 251.77 214.62 245.67 200.66 248.28 197.6 253.51 197.17 260.49 199.78 263.11 197.17 261.37 187.14 263.55 180.16 260.49 157.91 263.98 157.04 265.29 153.12 266.6 136.98 264.42 117.35 262.67 114.3 260.06 93.8 257.88 92.49 259 88.57 260.51 73.95"/></g><g id="coahuila"><polygon class="cls-1" points="438.46 165.58 443.12 150.25 446.79 147.57 450.78 146.9 457.11 143.57 467.44 142.24 472.44 140.24 478.1 142.24 487.1 144.24 490.77 148.9 491.1 151.57 495.09 155.23 503.09 159.23 505.42 162.23 507.08 165.56 510.75 170.22 514.42 178.22 516.08 184.88 519.08 190.54 524.08 196.87 526.75 201.87 532.54 208.86 535.92 219.44 535.92 221.43 530.52 221.01 525.2 223.92 521.8 233.81 515.45 237.29 510.82 242.53 510.25 247.47 512.59 247.76 514.92 245.72 516.95 247.47 519.86 247.76 518.69 254.16 516.66 259.1 517.53 260.26 514.62 262.88 511.61 259.56 498.05 271.31 503.28 279.45 507.36 280.33 506.83 286.43 508.92 287.6 508.92 290.43 508.55 292.83 509.98 295.45 514.05 300.68 517.38 302.13 518.62 303.59 517.2 305.04 521.88 307.66 522.17 309.4 527.99 309.69 530.9 311.73 530.03 314.35 525.68 315.8 519.86 313.18 514.87 314.04 510.55 316.67 509.39 322.49 513.46 324.81 510.75 327.72 512.59 332.08 512.53 335.82 511.4 339.35 509.8 337.47 507.86 337.9 505.86 339.06 500.28 334.99 499.21 331.79 497.17 330.05 492.52 329.76 489.62 332.08 484.96 330.92 485.84 328.6 484.38 327.14 482.06 328.3 480.02 326.85 477.7 321.62 463.74 316.38 452.4 319 445.42 332.37 443.09 331.21 442.22 329.47 435.82 328.3 431.46 323.36 430.88 319.87 429.72 318.13 427.69 317.84 423.33 311.44 423.91 308.53 426.81 307.08 424.49 303.3 425.36 299.81 428.85 295.74 429.14 290.22 428.26 288.18 427.69 282.36 430.59 276.55 429.72 273.06 418.38 260.41 408.79 218.1 430.59 177.1 432.13 173.89 438.46 165.58"/></g><g id="nuevo_leon" data-name="nuevo leon"><polygon class="cls-1" points="510.21 339.16 509.92 335.81 509.92 332.08 509.8 327.72 512.83 324.81 509.08 322.49 510.39 316.67 515.71 313.48 518.6 313.27 524.93 315.47 530.02 314.35 530.9 311.73 528 309.69 522.18 309.4 521.89 307.66 517.23 305.04 518.68 303.59 517.51 302.13 514.29 300.68 510.47 295.45 508.71 292.83 508.92 290.43 508.92 287.6 505.92 286.7 505.92 283.52 506.35 280.33 502.9 279.45 501.64 276.84 497.95 271.31 511.67 259.39 514.6 262.88 517.51 260.26 516.66 259.1 518.69 254.16 519.86 247.76 516.95 247.47 514.92 245.72 512.59 247.76 510.25 247.47 510.83 242.53 515.48 237.29 521.86 233.81 525.31 223.92 530.18 221.01 534.92 221.43 534.92 218.94 539.42 219.77 545.37 222.77 548.17 235.76 553.58 251.42 558.28 258.08 560.96 263.74 564.3 267.07 577.3 270.74 581.97 274.74 584.74 275.37 584.7 303.59 589.64 303.88 587.02 307.66 572.7 319.29 569.87 317.25 565.8 319.58 564.05 321.32 565.22 323.07 565.51 324.81 564.35 326.56 565.51 329.17 560.85 328.6 557.37 330.92 555.62 331.21 553.3 335.28 551.26 334.7 546.89 338.19 547.48 341.1 550.39 340.23 551.85 345.75 549.81 350.11 550.39 353.6 555.91 358.26 556.2 362.03 554.17 364.07 552.72 366.98 543.12 365.81 539.63 374.54 541.66 379.76 540.79 380.93 536.72 380.35 534.68 381.51 536.43 384.71 535.56 386.17 528.58 385.71 528.29 388.74 525.5 388.74 523.88 386.22 523.05 381.32 523.64 376.62 522.47 373.98 523.05 367.86 518.69 360 518.11 346.92 514.37 342.56 510.21 339.16"/></g><g id="tamaulipas"><polygon class="cls-1" points="585.07 275.24 590.79 276.83 596.95 280.74 613.77 280.74 619.62 285.68 623.94 284.74 625.58 284.74 626.33 283.51 626.81 284.73 628.71 283.67 629.96 283.39 629.66 294.53 618.51 321.5 618.24 317.82 622.05 309.73 621.57 306.4 622.52 305.44 618.24 304.02 617.77 304.97 619.2 305.44 617.77 310.45 617.3 309.74 615.01 309.74 615.39 308.74 613.77 308.74 612.53 311.76 613.49 314.79 612.36 319.24 612.53 321.22 615.87 323.56 614.44 325.45 612.06 325.91 613.49 327.33 613.01 332.09 614.44 331.61 613.01 339.41 611.11 336.74 609.42 336.74 608.73 338.74 609.42 338.74 609.21 341.03 610.16 341.79 613.49 340.74 612.06 353.54 611.59 353.04 611.11 354.46 612.53 354.93 613.01 363.49 612.06 364.44 612.53 369.19 613.1 370.26 612.53 381.56 613.88 394.51 612.06 400.59 609.68 402.01 610.63 402.97 609.21 406.77 610.72 407.8 610.63 409.63 613.88 420.21 611.74 421.63 609.7 421.35 609.41 417.86 603.31 414.81 601.35 413.06 598.73 412.48 597.28 414.81 595.24 415.46 591.1 413.79 588.76 414.95 583.68 414.66 581.5 416.11 577.72 416.7 576.85 417.86 571.9 414.95 566.38 415.24 560.56 405.94 557.37 406.52 555.04 403.9 553.87 404.77 554.75 408.26 550.68 407.1 544.57 404.19 539.29 403.32 536.92 401.87 536.92 399.85 541.9 395.18 541.79 393.72 539.54 391.69 538.43 388.49 535.8 390.24 534.92 388.2 534.92 386.17 536.02 384.71 534.48 381.51 536.62 380.35 540.74 380.93 541.63 379.76 539.62 374.54 543.11 365.81 552.71 366.98 554.16 364.07 556.2 362.03 555.91 358.26 550.39 353.6 549.81 350.11 551.85 345.75 550.39 340.23 547.48 341.1 546.89 338.19 551.26 334.7 553.3 335.28 555.62 331.21 557.37 330.92 560.85 328.6 564.64 329.76 565.51 329.17 564.35 326.56 565.51 324.81 565.22 323.07 564.05 321.32 565.8 319.58 569.87 317.25 572.7 319.29 587.02 307.66 589.64 303.88 584.7 303.59 585.07 275.24"/></g><g id="slp"><polygon class="cls-1" points="534.92 386.17 534.92 388.2 535.5 390.24 538.17 388.49 539.45 391.69 541.81 393.72 541.56 395.18 536.92 399.85 536.92 401.87 538.98 403.32 544.32 404.19 550.56 407.1 554.68 408.26 553.84 404.77 555.03 403.9 557.36 406.52 560.56 405.94 566.38 415.24 571.9 414.95 576.85 417.86 577.72 416.7 581.5 416.66 583.68 415.74 587.04 415.74 589.14 417.48 593.71 421.01 596.04 422.05 596.77 423.15 592.62 424.87 592.91 428.24 591.75 430.74 588.9 430.74 589.14 434.36 591.46 436.57 590.88 438.56 586.23 441.73 588.55 446.95 590.59 449.8 591.53 453.74 590.15 453.74 587.83 453.81 586.74 456 587.83 458.19 587.17 458.96 584.99 457.6 581.28 458.96 580.84 460.74 579.58 460.74 578.53 458.73 576.27 457.63 575.9 456.02 572.55 456.54 569.35 453.01 566.17 442.08 563.92 443.38 563.92 445.23 563.4 445.74 562.17 445.74 561.22 449.37 559.26 450.33 556.64 451.74 554.71 451.74 551.19 446.7 549.23 446.67 549 449.06 547.7 451.12 546.17 449.1 543.12 448.42 538.97 446.44 538.32 445.56 535.05 444.03 533.96 441.85 528.07 441.19 524.37 442.06 523.49 445.77 521.97 447.3 519.57 447.95 517.6 446.21 515.64 446.43 513.9 444.68 511.06 443.59 506.92 438.58 500.81 439.23 497.76 438.31 496.24 436.74 491.3 436.74 490.13 434.7 492.09 431.73 493.4 430.57 494.49 421.6 493.4 417.88 492.96 415.25 495.14 413.72 495.8 412.62 494.27 410.01 492.09 408.48 489.25 408.26 486.42 411.32 483.15 413.14 481.62 414.74 478.87 414.74 475.95 409.57 471.01 404.26 465.77 401.04 463.74 395.2 464.61 390.24 462.29 385.59 463.74 383.89 464.9 380.74 465.81 380.74 468.39 381.44 472.17 380.6 473.92 381.2 478.57 373.65 481.47 372.21 483.51 368.72 490.13 365.81 495.72 360.87 500.96 352.44 504.74 345.75 509.69 342.84 511.4 339.35 514.92 342.56 518.11 346.92 518.69 360 523.05 367.86 522.47 373.98 523.64 376.61 523.05 381.22 523.88 386.41 525.5 388.74 528.57 388.74 528.17 385.86 534.92 386.17"/></g><g id="zacatecas"><polygon class="cls-1" points="490.15 434.86 492.1 431.81 493.41 430.61 494.49 421.62 493.4 417.89 492.96 415.26 495.14 413.72 495.8 412.63 494.27 410.02 492.09 408.5 489.25 408.3 486.42 411.4 483.15 413.46 481.96 414.78 478.87 414.76 475.95 409.89 471.01 404.35 465.77 401.08 463.74 395.24 464.61 390.29 462.29 385.67 463.74 384.39 464.9 381.74 465.81 381.74 468.39 381.94 472.17 380.78 473.92 381.29 478.57 373.7 481.47 372.23 483.51 368.73 490.13 365.81 495.72 360.87 500.96 352.44 504.74 345.75 509.69 342.84 511.4 339.35 509.8 337.47 507.86 337.9 505.86 339.06 500.28 334.99 499.21 331.79 497.17 330.05 492.52 329.76 489.62 332.08 484.96 330.92 485.84 328.6 484.38 327.14 482.06 328.3 480.02 326.85 477.7 321.62 463.74 316.38 452.4 319 457.05 328.01 458.22 340.38 456.47 343.74 448.41 343.74 445.13 344.64 433.5 343.01 431.46 341.62 425.07 343.1 423.61 346.6 420.7 347.49 420.67 350.69 411.92 356.22 411.92 358.81 411.98 360.74 410.49 360.74 409.37 362.8 410.82 364.46 410.53 367.6 413.43 370.49 411.98 371.64 408.79 370.83 408.49 373.37 402.1 376.86 401.22 378.61 402.39 380.35 401.22 388.78 398.61 391.98 398.85 403.86 395.05 421.68 402.1 419.31 405.88 419.6 407.62 416.7 407.33 412.04 404.72 410.3 404.42 406.52 405.29 402.74 413.43 403.9 412.86 407.1 410.24 408.85 410.53 413.21 409.37 416.11 409.63 421.35 411.92 415.53 411.92 411.04 413.92 407.98 418.33 411.17 416.18 419.31 416.55 422.22 416.3 424.25 417.78 426.29 420.41 424.84 423.61 426.29 423.69 422.81 424.92 421.63 424.92 417.87 424.36 415.82 425.01 413.79 427.51 411.17 433.7 416.11 432.58 418.15 431.15 418.73 431.74 419.89 434.95 419.02 437.57 420.77 436.99 423.09 433.79 425.42 434.74 427.75 431.92 429.78 431.92 430.93 431.11 432.69 428.96 431.12 423.96 434.43 420.01 439.96 420.36 446.35 417.77 448.39 415.46 447.23 414.01 448.1 413.73 453.62 411.69 458.86 415.76 458.57 417.22 460.89 419.54 461.48 421.87 462.35 423.91 462.06 426.23 464.09 429.14 463.22 432.05 464.09 433.79 464.97 436.12 463.22 434.95 459.15 435.82 456.82 442.22 458.57 443.97 456.25 446.29 456.36 446.88 454.74 449.65 454.74 450.37 452.44 448.91 450.7 450.66 449.99 450.37 446.13 446.29 444.65 443.97 442.89 444.19 441.13 440.92 437.63 440.92 433.42 444.05 431.53 445.9 427.75 448.42 426.29 450.27 421.63 451.19 419.89 454.41 419.31 457.62 417.28 460.54 416.11 461.7 413.87 464.9 417.74 467.68 417.74 468.1 420.28 469.8 420.81 470.92 422.22 470.92 426.58 476.11 428.91 481.99 431.82 486.82 435.3 490.15 434.86"/></g><g id="durango"><polygon class="cls-1" points="393.7 416.01 389.35 416.01 386.11 413.06 385.52 410.3 384.14 406.56 380.94 405.1 374.62 409.17 369.97 406.85 371.57 404.49 376.22 401.87 375.06 398.96 374.48 396.05 366.33 391.98 359.06 391.69 358.63 388.2 354.7 388.63 351.65 386.46 351.65 383.83 349.03 380.79 348.16 373.81 344.24 371.19 342.93 365.52 341.62 363.78 342.05 359.85 343.37 356.8 341.18 353.31 338.13 346.33 331.15 342.4 328.54 345.46 323.74 346.77 319.81 342.4 321.12 338.92 317.19 331.94 314.14 326.7 309.34 324.96 305.86 317.98 303.67 308.82 305.42 301.84 305.42 295.3 317.63 296.61 323.3 292.69 323.3 282.22 325.92 282.22 328.97 277.42 325.05 271.31 325.92 268.7 334.64 267.82 334.64 263.03 336.38 260.85 337.26 256.05 339.87 256.05 341.62 253.43 349.91 259.54 355.14 259.97 359.06 265.64 366.48 267.82 371.27 264.77 372.58 266.95 374.33 267.39 378.25 265.21 383.49 266.08 385.67 269.57 389.16 270.88 391.77 270.44 399.63 258.23 407.48 257.36 418.38 260.41 429.72 273.06 430.59 276.55 427.69 282.36 428.26 288.18 429.14 290.22 428.85 295.74 425.36 299.81 424.49 303.3 426.81 307.08 423.91 308.53 423.33 311.44 426.23 315.22 427.69 317.84 429.72 318.13 430.88 319.87 431.46 323.36 435.82 328.3 442.22 329.47 443.09 331.21 445.42 332.37 452.4 319 457.05 328.01 458.22 340.77 456.47 344.52 448.41 344.52 445.13 345.03 433.5 343.21 431.46 341.72 425.07 343.15 423.61 346.63 420.7 347.5 421.2 350.7 412.97 356.22 412.97 358.81 411.98 360.68 410.49 360.68 409.37 362.77 410.82 364.44 410.53 367.59 413.43 370.48 411.98 371.63 408.79 370.83 408.49 373.37 402.1 376.86 401.22 378.61 402.39 380.35 401.22 388.78 398.61 391.98 398.85 403.86 395.05 421.68 393.7 416.01"/></g><g id="sinaloa"><polyline class="cls-2" points="210.57 391.55 215.8 388.22 218.18 385.36 222.47 383.47 225.32 379.66 226.27 373 224.37 367.29 217.71 363.96 217.71 359.21 213.43 354.45"/><polyline class="cls-3" points="366.33 391.98 359.06 391.69 356.44 394.59 357.9 396.63 355.58 397.5 354.12 401.29 356.44 403.61 357.61 406.52 357.9 408.55 355.58 410.88 353.25 409.72 350.63 409.42 349.8 408.26 349.25 408.59 349.69 410.22 349.25 410.88 347.62 409.46"/><polygon class="cls-1" points="304.55 295.41 304.55 289.81 302.83 286.58 299.85 285.71 298.58 281.78 295.99 278.29 285.09 277.42 282.48 259.97 278.56 255.61 278.99 249.94 273.32 246.45 271.58 243.84 267.22 242.96 264.6 245.58 261.55 252.99 255.01 259.11 239.96 267.5 240.29 269.77 242.19 270.73 241.24 273.57 238.86 271.2 238.94 270.76 237.99 269.8 235.53 275 235.53 272.15 230.3 279.29 229.82 282.62 230.3 285.47 230.3 285.94 229.35 287.85 230.3 292.13 231.72 289.28 234.1 291.18 235.06 292.13 237.91 293.56 238.86 295.93 241.24 295.93 245.19 293.59 246.11 294.65 244.09 297.84 243.62 296.41 241.71 297.09 239.81 297.84 242.19 300.69 242.67 299.26 245.04 299.26 246 300.69 247.42 299.26 246.47 296.88 250.75 297.84 250.28 302.12 251.23 301.64 252.18 303.07 252.41 303.05 253.6 303.07 255.51 304.5 253.46 305.26 261.22 308.3 262.64 310.68 262.95 310.33 263.6 308.78 265.02 309.25 265.02 311.63 264.38 311.66 264.07 312.11 268.35 312.11 269.78 314.49 271.21 314.01 273.59 315.44 275.01 318.29 271.68 317.82 270.73 316.39 269.78 317.34 270.73 317.82 270.73 319.25 269.31 318.77 265.97 314.49 264.55 314.49 267.19 318.02 270.73 324 271.68 324.95 272.16 324 273.59 324.47 273.92 320.44 275.39 322.16 275.22 324.67 275.49 326.85 275.01 327.33 272.64 326.38 274.54 331.13 278.2 334.04 276.91 331.61 280.72 333.52 283.1 336.84 285.48 337.32 286.43 338.75 289.29 337.32 287.86 336.84 288.33 336.37 290.23 336.37 291.66 341.13 290.71 342.08 288.81 341.6 281.18 337.05 280.71 337.53 296.89 349.21 303.56 354.92 305.46 356.35 309.74 361.58 312.59 368.72 321.63 377.75 324.96 385.84 326.39 385.84 331.62 390.6 337.81 398.69 339.23 398.21 338.75 399.16 344.46 404.87 346.37 409.63 347.32 409.63 346.84 410.58 349 410.88 349.54 408.26 350.38 409.42 355.32 410.88 357.65 408.55 356.19 403.61 353.86 401.29 355.32 397.5 357.65 396.63 356.19 394.59 358.81 391.69 358.37 388.2 354.45 388.63 351.4 386.46 351.4 383.83 348.77 380.79 347.9 373.81 343.98 371.19 342.67 365.52 341.37 363.78 341.8 359.85 343.11 356.8 340.93 353.31 337.87 346.33 330.89 342.4 328.28 345.46 323.48 346.77 319.56 342.4 320.86 338.92 316.94 331.94 313.88 326.7 309.09 324.96 305.6 317.98 303.42 308.82 305.16 301.84 304.55 295.41"/></g><g id="nayarit"><polygon class="cls-1" points="347.57 409.63 347.1 410.58 349.95 415.81 349.61 425.49 349.47 429.13 354.71 437.22 356.61 443.4 358.38 444.23 364.7 447.21 365.17 449.11 364.53 450.14 362.79 452.92 363.75 457.2 362.79 462.9 359.94 464.33 359.94 473.55 364.2 473.05 361.84 475.94 364.7 475.46 365.76 477.81 369.82 472.87 371.28 470.54 368.95 467.29 372.73 467.58 375.64 464.97 378.25 463.8 380.58 465.25 382.62 467 385.52 467.29 389.01 471.66 391.34 472.52 394.83 476.01 395.41 468.74 398.61 466.71 399.48 464.38 399.48 462.06 398.03 460.02 398.03 458.27 404.13 457.4 406.46 455.08 406.9 452.82 399.04 447.01 401.96 436.46 399.04 433.85 395.7 430.5 392.94 427.45 395.05 421.68 394.39 419.83 393.52 415.9 389.59 415.9 386.11 413.06 385.52 410.3 384.14 406.56 380.94 405.1 377.67 407.39 374.62 409.17 369.97 406.85 371.57 404.49 376.22 401.87 375.06 398.96 374.48 396.05 366.33 391.98 359.06 391.69 356.44 394.59 357.9 396.63 355.58 397.5 354.12 401.29 356.44 403.61 357.61 406.52 357.9 408.55 355.58 410.88 353.25 409.72 350.63 409.42 349.8 408.26 349.25 408.59 349.69 410.22 349.25 410.88 347.62 409.46 347.57 409.63"/></g><g id="guanajuato"><polygon class="cls-1" points="535.27 496.37 532.65 493.97 529.6 492.88 528.51 491.13 527.86 488.52 525.23 487.64 524.8 485.25 523.27 482.84 524.15 480.88 522.4 479.36 521.53 476.95 521.75 472.81 525.02 468.45 526.98 469.76 529.38 469.76 531.78 467.58 535.49 469.98 538.1 467.8 537.89 465.83 538.32 463.44 540.28 462.35 540.94 459.07 543.99 459.29 545.3 461.04 548.35 460.17 549.23 459.07 551.85 457.76 551.62 455.8 548.79 455.8 548.79 452.97 547.7 451.01 546.17 449.05 543.12 448.39 538.97 446.43 538.32 445.56 535.05 444.03 533.96 441.85 528.07 441.19 524.37 442.06 523.49 445.77 521.97 447.3 519.57 447.95 517.6 446.21 515.64 446.43 513.9 444.68 511.06 443.59 506.92 438.58 503.86 438.79 500.81 439.23 497.76 437.92 496.24 435.96 491.22 435.96 488.6 438.36 489.69 440.54 488.6 442.72 486.64 444.25 484.89 446.43 485.33 448.61 487.07 451.45 487.29 453.62 484.89 454.71 482.28 455.15 478.35 461.04 473.56 466.93 472.03 470.41 468.98 473.69 469.63 477.83 473.56 479.36 474.64 481.32 472.68 482.19 468.54 485.25 468.98 488.08 472.24 487.64 472.68 488.95 474.42 489.61 475.08 493.32 476.17 495.06 478.57 494.19 480.53 494.41 483.15 494.41 484.67 493.09 485.98 491.13 490.56 489.82 491 492.44 492.53 497.67 494.92 500.29 496.01 502.69 497.54 501.82 499.07 501.82 501.46 500.51 504.3 499.64 506.27 499.42 507.57 502.04 509.75 505.31 516.95 506.4 522.4 503.35 525.23 503.56 528.95 501.38 533.09 499.42 536.36 498.76 535.27 496.37"/></g><g id="aguascalientes"><polygon class="cls-1" points="451.53 440.25 457.34 442 463.45 442.87 468.68 438.79 470.72 435.01 475.37 433.27 473.63 430.07 476.82 428.91 472.17 426.29 472.17 422.22 470.43 420.77 468.1 420.19 467.52 417.57 464.9 417.57 461.7 413.79 460.54 416.11 457.63 417.28 454.43 419.31 451.24 419.89 450.37 421.63 448.62 426.29 446.29 427.75 444.84 431.53 442.81 433.27 442.81 437.63 445.13 441.12 447.75 439.38 451.53 440.25"/></g><g id="jalisco"><polyline class="cls-1" points="383.3 532.31 380.87 531.41 378.49 529.03 382.78 531.88 383.25 529.5 379.92 529.5 376.59 527.13 373.74 523.32 372.79 519.51 368.98 517.14 368.99 511.62 367 508.63 370.71 504.8 369.29 497.67 363.63 491.51 364.7 486.71 363.75 484.5 367.55 482.6 367.55 480.22 365.76 477.81 369.82 472.87 371.28 470.54 368.95 467.29 372.73 467.58 375.64 464.97 378.25 463.8 380.58 465.25 382.62 467 385.52 467.29 389.01 471.66 391.34 472.52 394.83 476.01 395.41 468.74 398.61 466.71 399.48 464.38 399.48 462.06 398.03 460.02 398.03 458.27 404.13 457.4 406.46 455.08 406.9 452.82 399.04 447.01 401.96 436.46 399.04 433.85 395.7 430.5 392.94 427.45 395.05 421.68 402.1 419.31 405.88 419.6 407.62 416.7 407.33 412.04 404.72 410.3 404.42 406.52 405.29 402.74 413.43 403.9 412.86 407.1 410.24 408.85 410.53 413.21 409.37 416.11 410.24 421.35 413.15 415.53 413.15 411.17 414.6 407.98 418.67 411.17 418.09 413.5 416.35 419.31 416.63 422.22 416.35 424.25 417.8 426.29 420.42 424.84 423.61 426.29 424.49 422.81 426.52 421.63 426.52 417.57 425.07 415.82 425.36 413.79 427.69 411.17 433.79 416.11 432.62 418.15 431.18 418.73 431.75 419.89 434.95 419.02 437.57 420.77 436.99 423.09 433.79 425.42 435.82 427.75 434.08 429.78 434.08 431.23 432.05 432.69 429.14 430.94 426.52 432.98 424.19 434.43 420.12 439.96 420.42 446.35 417.8 448.39 415.48 447.23 414.02 448.1 413.73 453.62 411.69 458.86 415.76 458.57 417.22 460.89 419.54 461.48 421.87 462.35 423.91 462.06 426.23 464.09 429.14 463.22 432.05 464.09 433.79 464.97 436.12 463.22 434.95 459.15 435.82 456.82 442.22 458.57 443.97 456.25 446.29 455.66 446.88 453.33 449.79 453.33 450.37 451.88 448.91 450.42 450.66 449.85 450.37 446.06 446.29 444.61 443.97 442.87 445.13 441.12 447.75 439.38 451.53 440.25 457.34 442 463.45 442.87 468.68 438.79 470.72 435.01 475.37 433.27 473.63 430.07 476.82 428.91 482.35 431.82 487 435.3 490.13 434.43 491.22 435.96 488.6 438.36 489.69 440.54 488.6 442.72 486.64 444.25 484.89 446.43 485.33 448.61 487.07 451.45 487.29 453.62 484.89 454.71 482.28 455.15 478.35 461.04 473.56 466.93 472.03 470.41 468.98 473.69 469.63 477.83 473.56 479.36 474.64 481.32 472.68 482.19 468.54 485.25 468.98 488.08 465.05 489.39 462.43 489.17 459.81 490.26 458.07 489.82 455.45 490.48 455.02 492 452.18 492.44 451.09 493.97 449.13 494.19 447.17 493.53 438.99 495.61 437.57 496.66 434.95 497.82 434.08 501.6 434.66 505.09 436.7 503.63 439.32 504.21 442.52 504.21 443.97 506.25 446 505.67 449.2 507.7 445.42 513.52 447.46 516.14 448.62 519.33 447.75 522.25 452.69 520.79 454.43 523.99 449.2 531.26 444.55 530.38 442.52 532.42 440.19 533.88 432.05 539.69 430.31 540.57 430.01 538.52 428.26 537.07 425.36 539.98 423.04 538.82 422.16 537.07 420.42 535.04 421.29 530.38 420.7 526.61 418.67 524.57 416.93 522.54 414.31 521.96 410.53 523.69 402.97 521.96 402.1 523.12 398.9 526.31 395.12 526.61 391.92 527.48 389.01 527.76 387.26 529.22 385.52 528.35 383.49 532.42"/></g><g id="colima"><polygon class="cls-4" points="404.66 542.35 401.23 540.93 392.67 537.4 392.19 534.07 388.48 534.26 383.3 532.31 385.52 528.35 387.26 529.22 389.01 527.76 391.92 527.48 395.12 526.61 398.9 526.31 402.1 523.12 402.97 521.96 410.53 523.69 414.31 521.96 416.93 522.54 418.67 524.57 420.7 526.61 421.29 530.38 420.42 535.04 422.16 537.07 423.04 538.82 419.25 542.31 417.22 541.72 416.63 544.63 414.89 546.38 412.27 548.99 404.66 542.35"/></g><g id="veracruz"><polyline class="cls-1" points="614.36 419.89 611.74 421.63 609.7 421.35 609.41 417.86 605.92 416.33 603.31 414.81 601.35 413.06 598.73 412.48 597.28 414.81 595.24 415.46 591.1 413.79 589.14 416.99 593.71 420.77 596.04 421.93 596.77 423.09 592.62 424.84 592.91 428.04 591.75 430.36 589.14 430.36 589.14 434.14 591.46 436.46 590.88 438.51 588.84 439.96 586.23 441.7 588.55 446.93 590.59 448.97 591.53 452.09 591.75 453.91 590.22 455.8 592.04 457.4 594.37 460.31 595.53 459.44 597.57 458.27 599.31 460.02 601.06 460.6 602.8 463.22 601.93 466.42 600.19 469.62 600.76 472.52 600.19 473.4 596.4 470.49 593.78 471.66 593.21 474.27 592.04 475.14 591.75 476.6 593.21 476.3 595.24 475.43 593.13 478.92 591.1 480.08 590.22 483.28 588.19 484.44 590.51 489.39 591.97 490.26 594.01 488.22 597.2 486.77 599.82 483.57 602.14 482.99 604.76 478.63 606.79 479.5 609.63 481.76 611.6 478.27 610.65 476.08 611.81 475.21 612.98 471.14 615.3 471.07 617.27 472.45 617.27 474.78 617.56 478.27 619.88 480.59 623.08 480.88 624.53 482.92 622.21 483.5 620.46 485.25 617.27 485.25 617.27 488.44 618.13 491.35 617.27 494.25 619.3 496 621.63 495.43 623.37 497.74 626.57 495.43 627.44 491.93 630.64 492.22 631.22 493.97 638.2 496.37 638.78 497.24 635 499.27 631.81 507.12 630.35 514.1 629.18 514.69 628.31 516.72 630.93 523.41 638.2 526.02 641.39 525.74 644.3 527.76 641.97 529.51 639.07 529.8 633.84 531.84 634.13 535.91 634.42 540.85 632.09 543.47 630.64 546.67 632.09 548.99 639.07 549.58 639.65 553.07 641.39 555.39 644.89 554.23 646.92 552.49 650.7 554.23 652.74 558.88 656.08 551.76 653.68 547.39 654.34 546.31 656.08 546.74 658.7 548.48 662.84 550.88 664.15 553.94 665.68 555.46 665.68 557.42 668.73 559.17 668.95 561.35 672.51 564.7 674.03 566.44 674.83 572.56 676.79 573.43 681.59 572.56 683.33 573.22 686.47 572.33 684.94 577.34 683.2 579.96 686.25 585.19 689.95 588.9 692.14 586.72 693.45 587.38 695.63 587.16 699.48 581.49 701.88 580.83 703.84 578.87 707.33 579.96 707.11 581.49 704.49 582.36 704.49 584.76 707.55 588.25 714.09 593.48 718.23 592.75 719.1 595.37 718.23 596.46 718.01 597.99 754.22 596.68 760.76 591.88 763.15 590.14 759.02 586.21 760.54 582.94 760.76 581.2 757.49 577.27 753.34 575.74 750.94 575.09 749.42 571.82 747.89 572.04 745.71 570.95 747.82 570.92 744.97 573.58 743.01 570.53 750.51 571.67 749.42 569.71 730.07 569.32 733.07 571.39 732.12 568.54 727.84 565.21 718.65 556.96 714.37 556.2 710.57 555.53 704.38 550.77 691.06 550.77 689.15 549.73 685.82 547.91 684.88 547.91 679.64 545.53 677.27 538.88 674.41 538.88 673.72 537.21 673.42 526.17 671.52 526.17 666.76 522.36 666.3 517.62 664.38 515.71 663.98 514.27 661.06 503.82 652.97 493.35 642.07 481.86 635.37 474.8 633.95 469.56 632.31 466.47 624.43 451.49 623.71 448.2 621.1 446.73 617.77 440.55 624.3 442.5 626.01 445.11 627.16 447.46 629.06 453.17 630.83 443.01 622.27 435.48 619.42 430.47 619.04 429.13"/></g><g id="df"><polygon class="cls-1" points="566.38 535.33 565.51 533 564.64 530.67 562.6 527.48 563.47 524.86 567.25 522.82 567.83 520.21 568.7 519.63 569.87 517.3 571.32 517.59 571.04 519.92 576.56 525.15 575.97 528.06 576.85 530.38 575.97 531.55 577.14 533 576.27 535.62 572.49 536.49 570.16 535.62 566.38 535.33"/></g><g id="edo_mex" data-name="edo mex"><polygon class="cls-1" points="589.06 515.27 589.06 510.03 587.32 508.58 584.7 507.12 581.79 507.12 580.34 508.29 578.3 507.7 576.85 509.74 574.81 507.42 575.97 505.67 575.97 503.93 578.3 501.6 577.14 500.14 574.52 501.6 571.62 500.73 568.42 502.47 566.09 503.35 566.38 505.96 566.09 507.99 563.76 507.99 562.89 510.03 561.15 510.03 561.44 507.12 559.98 506.83 558.24 502.47 559.69 500.73 557.95 496.95 554.75 497.24 550.39 495.78 547.48 493.46 545.45 491.43 543.7 493.16 544.28 496.07 541.96 496.66 537.89 501.3 537.3 503.93 537.3 507.42 535.56 509.74 534.11 513.81 532.65 518.17 533.81 523.41 530.62 525.44 531.2 529.22 528.58 533.88 529.74 537.07 528.58 539.4 525.96 544.34 527.13 549.86 527.42 555.1 530.03 558.3 533.53 560.04 536.14 556.85 538.17 556.27 540.21 551.9 544.57 551.03 548.93 550.74 551.26 547.54 553.3 546.67 555.62 548.41 558.24 548.99 560.27 546.96 559.98 544.92 561.44 541.43 564.35 540.27 564.35 538.24 566.38 535.33 565.51 533 564.64 530.67 562.6 527.48 563.47 524.86 567.25 522.82 567.83 520.21 568.7 519.63 569.87 517.3 571.32 517.59 571.04 519.92 576.56 525.15 575.97 528.06 576.85 530.38 575.97 531.55 577.14 533 576.27 535.62 580.05 537.95 579.46 540.57 581.79 540.27 584.7 539.69 585.86 538.52 587.61 538.24 588.76 536.2 587.61 530.96 587.02 526.31 587.32 522.54 587.32 520.21 584.99 518.17 585.28 516.72 587.61 516.72 589.06 515.27"/></g><g id="morelos"><polygon class="cls-1" points="571.62 558.59 570.16 555.1 567.83 554.52 567.55 558.01 565.51 558.59 563.18 556.85 563.18 554.81 561.44 553.94 560.56 551.9 558.82 550.74 558.24 548.99 560.27 546.96 559.98 544.92 561.44 541.43 564.35 540.27 564.35 538.24 566.38 535.33 570.16 535.62 572.49 536.49 576.27 535.62 580.05 537.95 579.46 540.57 581.79 540.27 584.7 539.69 585.86 538.52 587.61 538.24 587.61 541.14 585.57 542.6 584.41 546.38 587.61 548.99 585.86 550.74 586.74 557.42 585.57 558.59 584.41 556.85 581.79 555.68 577.72 559.46 573.65 561.21 571.62 558.59"/></g><g id="tlaxcala"><polygon class="cls-1" points="590.22 521.37 591.97 523.69 592.55 525.74 595.17 527.19 597.2 531.26 599.82 532.42 601.85 532.71 603.89 533.88 608.25 530.1 611.16 531.26 614.64 529.8 614.36 527.76 616.98 526.9 620.17 527.48 621.63 526.02 622.21 524.28 619.3 523.69 616.98 519.92 614.06 521.08 612.32 519.33 612.61 517.59 608.83 515.27 606.51 512.65 604.76 514.39 602.14 513.81 600.98 512.07 598.37 512.36 595.74 515.55 593.42 515.85 589.06 515.27 587.61 516.72 585.28 516.72 584.99 518.17 587.32 520.21 587.32 522.54 590.22 521.37"/></g><g id="queretaro"><polygon class="cls-1" points="578.44 457.99 575.17 459.29 571.47 459.29 568.86 460.39 566.45 461.25 563.62 460.39 562.75 461.69 561.22 461.91 562.31 464.09 561.22 465.83 561.22 467.58 557.95 472.6 556.42 475.65 557.73 478.05 554.25 479.79 549.44 481.32 546.82 481.98 546.17 486.33 545.45 491.43 543.7 493.16 544.28 496.07 541.96 496.66 537.89 501.3 536.36 498.76 535.27 496.37 532.65 493.97 529.6 492.88 528.51 491.13 527.86 488.52 525.23 487.64 524.8 485.25 523.27 482.84 524.15 480.88 522.4 479.36 521.53 476.95 521.75 472.81 525.02 468.45 526.98 469.76 529.38 469.76 531.78 467.58 535.49 469.98 538.1 467.8 537.89 465.83 538.32 463.44 540.28 462.35 540.94 459.07 543.99 459.29 545.3 461.04 548.35 460.17 549.23 459.07 551.85 457.76 551.62 455.8 548.79 455.8 548.79 452.97 547.7 451.01 549 448.83 549.23 446.21 551.19 445.77 553.15 448.17 554.68 450.14 556.64 450.14 559.26 449.48 561.22 449.26 561.88 445.77 563.4 445.77 564.93 445.12 564.93 443.38 566.67 442.06 568.42 448.83 569.51 452.97 572.55 456.46 575.83 455.8 576.27 457.33 578.44 457.99"/></g><g id="hidalgo"><polygon class="cls-1" points="609.63 481.76 606.79 479.5 604.76 478.63 602.14 482.99 599.82 483.57 597.2 486.77 594.01 488.22 591.97 490.26 590.51 489.39 588.19 484.44 590.22 483.28 591.1 480.08 593.13 478.92 595.24 475.43 593.21 476.3 591.75 476.6 592.04 475.14 593.21 474.27 593.78 471.66 596.4 470.49 600.19 473.4 600.76 472.52 600.19 469.62 601.93 466.42 602.8 463.22 601.06 460.6 599.31 460.02 597.57 458.27 595.53 459.44 594.37 460.31 592.04 457.4 590.22 455.8 591.75 453.91 591.53 452.09 590 452.09 587.83 452.97 586.74 455.58 587.83 457.99 587.17 458.86 584.99 457.55 581.28 458.42 580.84 459.73 579.32 459.73 578.44 457.99 575.17 459.29 571.47 459.29 568.86 460.39 566.45 461.25 563.62 460.39 562.75 461.69 561.22 461.91 562.31 464.09 561.22 465.83 561.22 467.58 557.95 472.6 556.42 475.65 557.73 478.05 554.25 479.79 549.44 481.32 546.82 481.98 546.17 486.33 545.45 491.43 547.48 493.46 550.39 495.78 554.75 497.24 557.95 496.95 559.69 500.73 558.24 502.47 559.98 506.83 561.44 507.12 561.15 510.03 562.89 510.03 563.76 507.99 566.09 507.99 566.38 505.96 566.09 503.35 568.42 502.47 571.62 500.73 574.52 501.6 577.14 500.14 578.3 501.6 575.97 503.93 575.97 505.67 574.81 507.42 576.85 509.74 578.3 507.7 580.34 508.29 581.79 507.12 584.7 507.12 587.32 508.58 589.06 510.03 589.06 515.27 593.42 515.85 595.74 515.55 598.37 512.36 600.98 512.07 599.82 509.16 600.11 506.54 603.31 501.3 603.31 498.4 604.18 496.37 602.14 493.75 599.23 494.62 598.65 493.46 599.82 490.26 602.43 490.84 604.76 488.22 606.79 485.32 609.41 483.86 609.63 481.76"/></g><g id="quintanaroo"><polyline class="cls-4" points="911.23 509.56 915.07 557.64 920.11 559.1 926.73 550.04 926.73 545.36 930.2 539.51 933.03 538.06 936.82 538.06 939.65 535.42 941.54 526.65 944.38 523.14 946.27 524.02 946.59 536.59 949.42 538.64 951.63 543.61 953.52 545.66 955.41 545.95 956.04 545.36 956.67 539.51 957.62 534.25 958.24 529.28 961.71 514.96 962.97 509.99 959.5 509.99 957.3 511.16 956.67 507.36 960.77 503.56 962.03 500.34 962.03 497.42 959.82 497.42 957.62 499.46 955.72 498.59 955.09 497.42 956.67 492.16 961.4 487.48 961.4 482.51 959.82 477.83 960.13 469.06 967.7 459.12 972.75 449.77 972.75 446.55 974.63 436.61 974 429.3 972.75 427.84 970.85 426.38 967.88 425.8 958.62 424.69 958.33 425.13 958.62 426.29 958.92 433.85 959.93 441.7 954.7 455.66 911.23 509.56"/></g><g id="yucatan"><polyline class="cls-1" points="865.11 457.66 865.41 454.5 865.13 451.96 865.13 450.54 866.49 449.44 872.74 444.35 880 440.55 882.73 439.12 897.14 435.63 902.26 434.38 914.13 431.51 918.89 430.08 922.21 426.75 926.97 424.85 934.11 424.37 936.96 422.47 942.19 421.99 952.18 423.42 954.09 423.9 958.6 424.72 959.32 424.85 958.62 426.29 958.92 433.85 959.93 441.7 954.7 455.66 911.23 509.56 878.09 468.67 877.21 469.98 876.23 470.63 874.81 470.41 872.52 469.76 871.21 469.32 871.21 468.56 871.1 467.58 870.56 467.14 868.38 467.14 866.09 467.25 865.11 457.66 864.67 457"/></g><g id="campeche"><polygon class="cls-1" points="808.17 546.42 808.6 549.18 809.91 550.5 811.81 549.48 816.82 549.26 817.98 560.31 819.14 560.75 819.87 562.64 822.56 563 824.02 564.74 825.32 565.32 825.61 566.49 828.09 567.79 829.67 562.95 830.54 561.06 830.11 559.46 830.69 556.99 833.74 556.55 835.63 558.3 837.45 558.17 839.9 558.75 842.03 559.17 843.48 561.21 851.62 560.48 852.65 570.43 910.66 563.2 910.66 562.02 910.34 558.22 915.07 557.64 911.23 509.56 878.09 468.67 877.21 469.98 876.23 470.63 874.81 470.41 872.52 469.76 871.21 469.32 871.21 468.56 871.1 467.58 870.56 467.14 868.38 467.14 866.09 467.25 865.11 457.66 864.67 457 862.56 460.68 861.95 466.65 861.8 468.14 862.75 472.41 862.75 483.83 864.66 487.64 862.28 491.45 857.52 496.2 856.09 512.38 848.48 519.99 842.77 524.75 834.21 529.03 831.84 532.36 834.69 531.88 835.16 531.88 840.39 534.26 839.44 538.54 838.76 539.46 833.26 542.82 833.26 543.77 833.26 543.77 833.73 545.68 829.6 548.7 829.13 548.22 826.75 547.74 827.22 547.27 826.27 545.84 826.75 545.37 827.7 544.42 822.47 540.61 806.65 543.95 808.17 546.42"/></g><g id="chiapas"><polygon class="cls-1" points="768.74 574.24 770.71 573.81 771.8 572.49 774.2 572.71 776.81 574.24 778.64 568.99 782.79 569.86 783 572.47 781.91 574 782.13 578.14 781.48 581.41 786.71 581.41 789.54 585.56 790.41 586.43 792.59 586.65 794.56 584.47 804.59 575.09 805.68 572.91 812.66 570.08 814.62 569.42 821.47 571.21 823.43 568.6 826.49 570.78 825.53 572.47 829.45 573.56 830.98 577.27 831.2 579.45 835.77 580.76 836 582.72 838.18 583.38 839.92 584.47 839.05 586.21 840.06 591.84 840.06 594.26 843.53 594.48 853.93 601.49 859.6 602.66 862.12 604.41 866.53 611.73 868.43 613.18 873.79 614.65 874.42 615.82 874.42 622.83 875.36 624.88 874.73 628.1 875.04 629.85 832.81 629.85 816.1 658.79 816.1 661.71 821.47 664.06 821.47 666.68 818.94 671.07 819.89 674.28 821.15 676.62 820.83 680.42 818 684.52 817.05 687.14 816.43 687.73 814.22 687.44 810.75 683.64 810.75 682.47 796.63 669.35 795.33 667.58 796.63 666.98 796.63 666.5 794.25 665.08 793.78 666.03 789.5 663.65 781.41 656.04 768.56 647 754.3 638.91 757.15 637.96 755.25 635.59 748.33 633.53 749.42 630.92 748.54 628.52 749.63 625.46 746.15 619.58 749.2 613.04 748.33 609.33 750.29 608.68 753.56 606.5 753.13 602.57 754.65 601.7 754.22 596.68 760.76 591.88 763.15 590.14 766.86 584.25 767.3 581.2 769.92 579.01 768.74 574.24"/></g><g id="tabasco"><polyline class="cls-4" points="768.74 574.24 770.57 570.08 769.7 571.38 769.48 572.91 768.83 575.31 769.92 579.01 767.3 581.2 766.86 584.25 763.15 590.14 759.02 586.21 760.54 582.94 760.76 581.2 757.49 577.27 753.34 575.74 750.94 575.09 749.42 571.82 747.89 572.04 745.71 570.95 743.01 570.53 744.97 573.58 747.82 570.92 757.81 566.63 758.76 566.16 766.37 562.36 772.56 560.93 781.59 560.45 782.54 560.45 790.15 559.5 798.21 546.79 798.75 547.04 799.15 545.84 806.13 543.95 808.17 546.42 808.6 549.18 809.91 550.5 811.81 549.48 816.82 549.26 817.98 560.31 819.14 560.75 819.87 562.64 822.56 563 824.02 564.74 825.32 565.32 825.61 566.49 825.31 567.89 828.55 570.5 832.49 569.97 827.65 568.57 829.67 562.95 830.54 561.06 830.11 559.46 830.69 556.99 833.74 556.55 835.63 558.3 837.45 558.17 839.9 558.75 842.03 559.17 843.48 561.21 851.62 560.48 852.03 570.5 852.03 590.68 841.95 590.97 840.06 591.84 839.05 586.21 839.92 584.47 838.18 583.38 836 582.72 835.77 580.76 831.2 579.45 830.98 577.27 829.45 573.56 825.53 572.47 826.49 570.78 823.43 568.6 821.47 571.21 814.62 569.42 812.66 570.08 805.68 572.91 804.59 575.09 794.56 584.47 792.59 586.65 790.41 586.43 789.54 585.56 786.71 581.41 781.48 581.41 782.13 578.14 781.91 574 783 572.47 782.79 569.86 778.64 568.99 776.81 574.24 774.2 572.71 771.8 572.49 770.71 573.81"/></g><g id="oaxaca"><polygon class="cls-1" points="754.22 596.68 718.01 597.99 718.23 596.46 719.1 595.37 718.23 592.75 714.09 593.48 707.55 588.25 704.49 584.76 704.49 582.36 707.11 581.49 707.33 579.96 703.84 578.87 701.88 580.83 699.48 581.49 695.63 587.16 693.45 587.38 692.14 586.72 689.95 588.9 686.25 585.19 683.2 579.96 684.94 577.34 686.47 572.33 683.33 573.22 681.59 572.56 676.79 573.43 674.83 572.56 674.03 566.44 672.51 564.7 668.95 561.35 668.73 559.17 665.68 557.42 665.68 555.46 664.15 553.94 662.84 550.88 658.7 548.48 656.08 546.74 654.34 546.31 653.68 547.39 656.08 551.76 652.74 558.88 650.19 562.66 648.88 564.4 645.4 564.62 643.21 566.59 641.25 566.81 640.16 565.93 635.59 566.37 629.48 570.95 628.38 574.65 626.64 574.44 625.33 569.2 622.06 567.02 623.15 561.79 621.41 560.48 619.01 562.88 617.05 563.09 614.87 569.64 617.92 572.25 617.92 574.65 616.18 575.74 613.56 575.74 611.6 574 602 574.22 601.35 577.27 599.38 575.74 597.2 578.29 596.98 579.89 596.98 583.16 596.77 587.96 596.55 592.32 598.73 595.37 600.25 599.29 600.69 602.13 603.09 603.44 604.4 607.59 607.45 609.55 609.2 616.75 610.07 618.05 609.41 621.33 605.92 623.29 605.49 625.25 598.95 627.21 597.2 631.57 593.13 634.19 608.25 637.01 609.68 637.96 605.88 637.96 616.35 643.2 616.53 643.51 616.82 643.67 619.67 645.58 641.55 647.48 652.97 653.18 662.48 655.57 665.81 656.04 667.24 654.13 676.28 653.66 684.37 648.9 690.62 646.6 702.44 642.24 707.68 636.53 711.48 635.11 711.96 633.68 723.72 633.5 722.77 632.54 719.58 631.78 715.77 631.78 715.29 631.78 714.34 630.83 715.29 629.4 717.66 628.92 719.09 626.07 720.99 625.12 724.33 628.45 723.38 630.35 723.85 631.3 728.13 627.02 730.99 628.45 730.04 630.83 726.22 633.21 733.37 633.21 737.45 634.26 750.77 638.07 750.96 637.49 749.54 636.06 745.26 635.11 744.3 633.68 739.55 633.21 738.3 632.49 737.17 632.34 736.22 631.3 737.17 628.92 744.3 632.25 746.68 630.83 748.33 633.53 749.42 630.92 748.54 628.52 749.63 625.46 746.15 619.58 749.2 613.04 748.33 609.33 750.29 608.68 753.56 606.5 753.13 602.57 754.65 601.7 754.22 596.68"/><polyline class="cls-5" points="576.56 565.28 579.46 567.61 580.34 569.35 584.12 569.93 583.83 572.25 584.7 574.29 587.9 576.03 591.67 574.29 595.74 575.74 597.2 577.49"/></g><g id="guerrero"><polygon class="cls-1" points="584.94 625.6 582.57 625.6 581.62 626.55 575.43 624.17 552.6 620.36 546.89 617.5 545.94 614.65 544.3 614.81 542.61 613.71 518.83 605.61 505.03 600.86 503.13 597.53 492.18 591.82 489.33 588.01 487.43 588.01 484.57 586.59 479.34 578.98 473.63 575.17 470.3 574.7 467.23 577.2 466.65 573.71 466.94 570.22 469.56 567.61 473.92 566.73 477.99 564.99 476.82 560.91 476.82 557.14 476.53 555.1 479.15 552.78 482.35 553.07 485.84 552.49 487.29 554.23 489.62 555.97 492.53 555.97 497.76 554.23 500.96 556.27 504.16 556.55 507.36 556.27 509.39 558.88 512.59 557.42 514.92 558.3 517.83 560.33 519.57 561.79 521.89 560.04 522.47 557.14 519.86 553.36 521.31 549.86 523.64 547.83 525.96 544.34 527.13 549.86 527.42 555.1 530.03 558.3 533.53 560.04 536.14 556.85 538.17 556.27 540.21 551.9 544.57 551.03 548.93 550.74 551.26 547.54 553.3 546.67 555.62 548.41 558.24 548.99 558.82 550.74 560.56 551.9 561.44 553.94 563.18 554.81 563.18 556.85 565.51 558.59 567.55 558.01 567.83 554.52 570.16 555.1 571.62 558.59 573.65 561.21 574.23 564.12 576.56 565.28 579.46 567.61 580.34 569.35 584.12 569.93 583.83 572.25 584.7 574.29 587.9 576.03 591.67 574.29 595.74 575.74 597.2 577.49 596.98 579.89 596.98 583.16 596.77 587.96 596.55 592.32 598.73 595.37 600.25 599.29 600.69 602.13 603.09 603.44 604.4 607.59 607.45 609.55 609.2 616.75 610.07 618.05 609.41 621.33 605.92 623.29 605.49 625.25 598.95 627.21 597.2 631.57 593.13 634.19 584.94 625.6"/></g><g id="puebla"><polygon class="cls-1" points="652.74 558.88 650.7 554.23 646.92 552.49 644.89 554.23 641.39 555.39 639.65 553.07 639.07 549.58 632.09 548.99 630.64 546.67 632.09 543.47 634.42 540.85 634.13 535.91 633.84 531.84 639.07 529.8 641.97 529.51 644.3 527.76 641.39 525.74 638.2 526.02 630.93 523.41 628.31 516.72 629.18 514.69 630.35 514.1 631.81 507.12 635 499.27 638.78 497.24 638.2 496.37 631.22 493.97 630.64 492.22 627.44 491.93 626.57 495.43 623.37 497.74 621.63 495.43 619.3 496 617.27 494.25 618.13 491.35 617.27 488.44 617.27 485.25 620.46 485.25 622.21 483.5 624.53 482.92 623.08 480.88 619.88 480.59 617.56 478.27 617.27 474.78 617.27 472.45 615.3 471.07 612.98 471.14 611.81 475.21 610.65 476.08 611.6 478.27 609.63 481.76 609.41 483.86 606.79 485.32 604.76 488.22 602.43 490.84 599.82 490.26 598.65 493.46 599.23 494.62 602.14 493.75 604.18 496.37 603.31 498.4 603.31 501.3 600.11 506.54 599.82 509.16 600.98 512.07 602.14 513.81 604.76 514.39 606.51 512.65 608.83 515.27 612.61 517.59 612.32 519.33 614.06 521.08 616.98 519.92 619.3 523.69 622.21 524.28 621.63 526.02 620.17 527.48 616.98 526.9 614.36 527.76 614.64 529.8 611.16 531.26 608.25 530.1 603.89 533.88 601.85 532.71 599.82 532.42 597.2 531.26 595.17 527.19 592.55 525.74 591.97 523.69 590.22 521.37 587.32 522.54 587.02 526.31 587.61 530.96 588.76 536.2 587.61 538.24 587.61 541.14 585.57 542.6 584.41 546.38 587.61 548.99 585.86 550.74 586.74 557.42 585.57 558.59 584.41 556.85 581.79 555.68 577.72 559.46 573.65 561.21 574.23 564.12 576.56 565.28 579.46 567.61 580.34 569.35 584.12 569.93 583.83 572.25 584.7 574.29 587.9 576.03 591.67 574.29 595.74 575.74 597.2 577.49 599.38 575.74 601.35 577.27 602 574.22 611.6 574 613.56 575.74 616.18 575.74 617.92 574.65 617.92 572.25 614.87 569.64 617.05 563.09 619.01 562.88 621.41 560.48 623.15 561.79 622.06 567.02 625.33 569.2 626.64 574.44 628.38 574.65 629.48 570.95 635.59 566.37 640.16 565.93 641.25 566.81 643.21 566.59 645.4 564.62 648.88 564.4 650.19 562.66 652.74 558.88"/></g><g id="michoacan"><polygon class="cls-1" points="467.23 577.2 466.65 573.71 466.94 570.22 469.56 567.61 473.92 566.73 477.99 564.99 476.82 560.91 476.82 557.14 476.53 555.1 479.15 552.78 482.35 553.07 485.84 552.49 487.29 554.23 489.62 555.97 492.53 555.97 497.76 554.23 500.96 556.27 504.16 556.55 507.36 556.27 509.39 558.88 512.59 557.42 514.92 558.3 517.83 560.33 519.57 561.79 521.89 560.04 522.47 557.14 519.86 553.36 521.31 549.86 523.64 547.83 525.96 544.34 528.58 539.4 529.74 537.07 528.58 533.88 531.2 529.22 530.62 525.44 533.81 523.41 532.65 518.17 534.11 513.81 535.56 509.74 537.3 507.42 537.3 503.93 537.89 501.3 536.36 498.76 533.09 499.42 528.95 501.38 525.23 503.56 522.4 503.35 516.95 506.4 509.75 505.31 507.57 502.04 506.27 499.42 504.3 499.64 501.46 500.51 499.07 501.82 497.54 501.82 496.01 502.69 494.92 500.29 492.53 497.67 491 492.44 490.56 489.82 485.98 491.13 484.67 493.09 483.15 494.41 480.53 494.41 478.57 494.19 476.17 495.06 475.08 493.32 474.42 489.61 472.68 488.95 472.24 487.64 468.98 488.08 465.05 489.39 462.43 489.17 459.81 490.26 458.07 489.82 455.45 490.48 455.02 492 452.18 492.44 451.09 493.97 449.13 494.19 447.17 493.53 438.99 495.61 437.57 496.66 434.95 497.82 434.08 501.6 434.66 505.09 436.7 503.63 439.32 504.21 442.52 504.21 443.97 506.25 446 505.67 449.2 507.7 445.42 513.52 447.46 516.14 448.62 519.33 447.75 522.25 452.69 520.79 454.43 523.99 449.2 531.26 444.55 530.38 442.52 532.42 440.19 533.88 432.05 539.69 430.31 540.57 430.01 538.52 428.26 537.07 425.36 539.98 423.04 538.82 419.25 542.31 417.22 541.72 416.63 544.63 414.89 546.38 412.27 548.99 413.16 549.91 414.17 551.86 413.69 552.81 417.97 556.14 421.31 562.33 436.53 567.56 446.52 571.84 455.08 573.74 465.55 577.07 466.98 577.55 467.23 577.2"/></g><g id="divisionPolitica"><g class="cls-6"><polygon class="cls-7" points="625.27 305.02 629.66 294.51 629.83 291.12 630.13 284.99 629.96 283.33 628.71 283.57 626.81 284.52 626.33 283.09 625.61 284.06 623.94 284.06 619.62 285.06 613.62 280.4 596.95 280.4 590.63 276.73 581.97 274.74 577.3 270.74 564.31 267.07 560.98 263.74 558.31 258.08 553.65 251.42 548.32 235.76 546.99 229.43 545.65 222.77 539.99 219.77 536.99 219.44 536.99 219.44 536.74 219.19 533.08 208.86 526.75 201.87 524.08 196.87 519.08 190.54 516.08 184.88 514.42 178.22 510.75 170.22 507.08 165.56 505.42 162.23 503.09 159.23 495.09 155.23 491.1 151.57 490.77 148.9 487.1 144.24 478.1 142.24 472.44 140.24 467.44 142.24 457.11 143.57 450.78 146.9 446.79 147.57 443.12 150.24 440.79 158.89 438.46 165.56 432.13 173.89 429.8 174.88 429.8 174.88 415.81 167.89 415.13 165.56 414.14 165.56 407.14 161.56 401.48 159.56 394.14 153.9 389.48 150.9 384.48 146.9 382.49 137.24 378.48 118.59 375.82 113.93 366.49 104.93 360.83 103.6 353.83 94.6 346.83 82.94 336.51 75.62 333.17 71.95 333.17 68.96 330.85 65.29 328.52 64.63 322.18 64.29 312.19 58.96 275.21 58.96 275.21 73.95 252.89 73.95 252.89 73.95 185.92 73.95 72.98 11.66 72.98 11.66 75.64 6 75.64 1 75.64 1 1.35 1 1.01 4.33 2.22 8.14 2.69 12.9 1.74 14.32 1.66 15.27 2.61 16.69 2.22 19.08 4.12 18.6 6.02 21.93 5.55 22.89 4.6 22.41 6.5 32.4 7.92 35.25 10.78 37.63 11.57 44.36 11.73 45.72 13.64 46.67 14.59 49.52 18.87 52.85 17.44 56.18 14.59 55.71 16.96 59.04 16.96 61.89 15.54 62.84 17.44 66.17 20.77 68.08 25.05 76.64 25.53 80.92 24.1 85.2 26.48 85.68 32.19 91.86 31.23 104.23 31.21 104.94 31.69 104.94 32.19 104.7 33.61 105.18 34.31 104.64 34.57 105.18 33.61 106.61 36.95 108.03 38.37 113.27 36.95 123.26 39.32 124.21 39.8 130.39 43.6 133.25 44.56 135.62 46.46 136.1 53.59 141.81 54.54 144.19 62.16 146.57 68.81 156.08 70.72 157.03 73.1 163.69 76.43 164.64 81.66 173.21 84.99 174.63 84.99 177.01 87.37 180.34 83.08 188.91 84.99 191.76 84.04 197.47 83.08 197.94 83.08 196.51 78.81 199.84 77.38 202.7 76.43 202.22 70.72 205.55 67.39 205.55 60.25 202.22 55.49 202.22 54.07 200.79 54.54 205.55 56.45 206.03 57.88 207.93 59.3 207.45 59.3 208.88 61.2 210.31 63.11 213.64 69.29 217.92 70.24 224.58 71.67 225.06 72.14 226.96 76.43 228.86 77.85 227.91 79.76 228.86 84.99 235.52 89.75 235.52 93.55 241.7 97.36 245.03 99.26 245.03 102.59 241.7 103.54 242.66 104.06 243.14 108.3 245.99 108.78 246.94 112.58 248.84 113.06 249.79 123.05 257.88 122.57 258.83 125.9 262.16 127.78 262.37 130.18 262.63 130.18 263.59 132.08 265.02 133.04 264.06 135.41 265.49 135.89 271.67 137.31 271.2 138.74 273.57 139.1 274.51 142.55 283.57 142.95 286.65 143.78 288.59 143.02 301.64 140.65 304.97 140.65 309.25 140.41 310.28 141.13 310.83 141.6 310.2 141.6 312.58 140.17 315.44 141.6 319.72 141.82 319.69 142.07 319.72 143.72 320.1 142.55 319.72 144.93 320.19 144.45 315.91 146.35 319.72 149.21 324.47 149.68 329.24 151.11 329.24 150.16 327.33 153.01 328.28 153.97 326.85 154.92 327.33 156.34 331.61 161.1 336.84 173.94 345.41 176.81 348.71 177.81 349.88 186.31 359.67 193.16 364.04 196.78 366.34 198.2 369.17 201.06 374.9 203.44 387.75 205.82 391.55 210.57 391.55 215.8 388.22 218.18 385.36 222.47 383.47 225.32 379.66 226.27 373 224.37 367.29 217.71 363.96 217.71 359.21 213.43 354.45 214.85 351.12 213.9 349.69 210.57 350.64 209.62 349.69 208.19 345.41 203.91 342.08 201.53 338.27 198.68 338.75 199.63 343.98 196.3 346.36 195.35 343.98 195.35 343.98 194.74 343.03 191.54 342.55 188.22 340.17 186.31 336.84 184.88 329.24 187.74 321.62 187.26 317.34 185.36 313.54 182.03 310.68 180.6 307.35 179.65 302.6 177.27 298.31 177.75 294.51 172.99 292.6 171.56 287.37 169.19 284.99 169.66 283.09 168.71 282.62 167.76 278.33 168.67 275 169.19 273.1 167.28 268.34 167.28 264.54 164.91 261.68 166.33 258.36 162.53 255.97 162.87 251.86 163 250.27 153.97 243.61 153.49 244.56 148.26 239.33 151.11 236 142.55 231.72 142.55 230.76 143.5 230.29 140.65 226.48 139.7 219.35 134.94 216.02 132.56 215.54 127.33 207.93 128.75 201.75 126.85 200.79 127.33 194.61 124.47 191.76 125.42 186.05 120.67 185.57 117.81 183.67 115.91 171.3 114.96 170.83 111.16 171.78 111.16 167.5 109.72 165.6 107.82 166.07 107.82 167.97 105.92 167.5 104.97 165.6 105.44 159.88 103.07 157.03 102.59 154.18 100.69 150.37 90.7 140.86 86.89 134.67 84.99 133.72 83.56 134.67 81.18 132.77 80.71 128.49 76.9 125.16 73.57 117.55 75.95 107.56 74.05 101.38 74.52 91.39 70.72 88.53 71.67 86.15 69.77 82.35 72.14 69.03 74.52 65.22 73.38 60.69 71.95 60.21 69.57 56.4 68.34 54.76 67.86 52.38 77.38 60.94 81.18 61.42 91.65 70.93 97.83 72.36 100.21 69.98 99.26 69.5 100.21 68.55 102.11 68.55 109.72 73.31 110.2 78.54 109.25 78.54 114 81.4 120.67 83.77 122.09 83.3 120.19 82.35 121.62 81.87 124.47 85.68 124.47 84.25 125.9 84.25 127.33 86.63 127.33 87.26 127.33 89.01 125.9 92.81 125.84 93.66 125.42 94.72 124 99.47 124.47 103.75 127.09 107.98 130.66 113.74 130.66 119.45 131.61 119.45 133.51 122.3 133.04 132.77 135.41 133.25 137.79 140.38 143.5 148.47 142.07 152.75 142.55 154.65 144.45 156.08 144.45 155.13 147.31 154.65 148.73 156.56 147.78 160.36 149.21 162.26 149.21 167.97 150.63 168.45 154.92 173.68 158.25 175.11 158.25 177.01 156.82 175.58 155.39 176.06 160.63 182.72 162.53 187.48 170.61 191.28 170.14 192.71 172.52 196.99 180.13 207.45 183.93 206.98 187.26 211.74 188.22 209.84 187.26 209.36 188.69 206.5 189.64 208.88 190.25 209.06 191.07 208.88 195.83 211.26 196.3 210.31 199.16 211.26 199.16 212.21 195.83 212.69 195.83 215.54 197.73 216.02 196.3 217.44 196.78 217.92 194.87 218.87 196.3 223.15 196.78 229.34 199.16 229.34 200.11 231.72 198.21 231.72 201.06 233.14 203.91 237.42 212 239.8 215.33 239.8 217.71 245.99 215.33 244.08 219.61 253.12 223.89 255.97 225.32 255.03 228.14 254.92 227.22 253.6 229.13 252.65 229.13 254.07 231.03 254.55 231.5 255.5 230.08 255.5 236.26 261.21 237.21 264.54 236.74 268.82 240.06 267.39 240.54 269.77 242.44 270.73 241.49 273.57 239.11 271.2 239.2 270.76 238.25 269.8 235.79 275 235.79 272.15 230.55 279.29 230.08 282.62 230.55 285.47 230.55 285.94 229.6 287.85 230.55 292.13 231.98 289.28 234.35 291.18 235.31 292.13 238.16 293.56 239.11 295.93 241.49 295.93 245.45 293.59 246.36 294.65 244.35 297.84 243.87 296.41 241.97 297.09 240.06 297.84 242.44 300.69 242.92 299.26 245.3 299.26 246.25 300.69 247.68 299.26 246.72 296.88 251.01 297.84 250.53 302.12 251.48 301.64 252.43 303.07 252.66 303.05 253.86 303.07 255.76 304.5 253.71 305.26 261.47 308.3 262.9 310.68 263.2 310.33 263.85 308.78 265.28 309.25 265.28 311.63 264.63 311.66 264.33 312.11 268.61 312.11 270.04 314.49 271.46 314.01 273.84 315.44 275.27 318.29 271.94 317.82 270.99 316.39 270.04 317.34 270.99 317.82 270.99 319.25 269.56 318.77 266.23 314.49 264.8 314.49 267.45 318.02 270.99 324 271.94 324.95 272.41 324 273.84 324.47 274.17 320.44 275.65 322.16 275.48 324.67 275.74 326.85 275.27 327.33 272.89 326.38 274.79 331.13 278.45 334.04 277.17 331.61 280.98 333.52 283.35 336.84 285.73 337.32 286.68 338.75 289.54 337.32 288.11 336.84 288.59 336.37 290.49 336.37 291.92 341.13 290.97 342.08 289.06 341.6 281.44 337.05 280.96 337.53 297.15 349.21 303.81 354.92 305.71 356.35 309.99 361.58 312.85 368.72 321.89 377.75 325.21 385.84 326.64 385.84 331.88 390.6 338.06 398.69 339.49 398.21 339.01 399.16 344.72 404.87 346.62 409.63 347.57 409.63 347.1 410.58 349.95 415.81 349.61 425.49 349.47 429.13 354.71 437.22 356.61 443.4 358.38 444.23 364.7 447.21 365.17 449.11 364.53 450.14 362.79 452.92 363.75 457.2 362.79 462.9 359.94 464.33 359.94 473.55 364.2 473.05 361.84 475.94 364.7 475.46 367.55 480.22 367.55 482.6 363.75 484.5 364.7 486.71 363.63 491.51 369.29 497.67 370.71 504.8 367 508.63 368.99 511.62 368.98 517.14 372.79 519.51 373.74 523.32 376.59 527.13 379.92 529.5 383.25 529.5 382.78 531.88 378.49 529.03 380.87 531.41 383.3 532.31 388.48 534.26 392.19 534.07 392.67 537.4 401.23 540.93 404.66 542.35 413.22 549.96 414.17 551.86 413.69 552.81 417.97 556.14 421.31 562.33 436.53 567.56 446.52 571.84 455.08 573.74 465.55 577.07 466.98 577.55 470.3 574.7 473.63 575.17 479.34 578.98 484.57 586.59 487.43 588.01 489.33 588.01 492.18 591.82 503.13 597.53 505.03 600.86 518.83 605.61 542.61 613.71 544.3 614.81 545.94 614.65 546.89 617.5 552.6 620.36 575.43 624.17 581.62 626.55 582.57 625.6 584.94 625.6 592.55 633.68 608.25 637.01 609.68 637.96 605.88 637.96 616.35 643.2 616.53 643.51 616.82 643.67 619.67 645.58 641.55 647.48 652.97 653.18 662.48 655.57 665.81 656.04 667.24 654.13 676.28 653.66 684.37 648.9 690.62 646.6 702.44 642.24 707.68 636.53 711.48 635.11 711.96 633.68 723.72 633.5 722.77 632.54 719.58 631.78 715.77 631.78 715.29 631.78 714.34 630.83 715.29 629.4 717.66 628.92 719.09 626.07 720.99 625.12 724.33 628.45 723.38 630.35 723.85 631.3 728.13 627.02 730.99 628.45 730.04 630.83 726.22 633.21 733.37 633.21 737.45 634.26 750.77 638.07 750.96 637.49 749.54 636.06 745.26 635.11 744.3 633.68 739.55 633.21 738.3 632.49 737.17 632.34 736.22 631.3 737.17 628.92 744.3 632.25 746.68 630.83 749.06 634.16 755.25 635.59 757.15 637.96 754.3 638.91 768.56 647 781.41 656.04 789.5 663.65 793.78 666.03 794.25 665.08 796.63 666.5 796.63 666.98 795.33 667.58 796.63 669.35 810.75 682.47 810.75 683.64 814.22 687.44 816.43 687.73 817.05 687.14 818 684.52 820.83 680.42 821.15 676.62 819.89 674.28 818.94 671.07 821.47 666.68 821.47 664.06 816.1 661.71 816.1 658.79 832.81 629.85 875.04 629.85 874.73 628.1 875.36 624.88 874.42 622.83 874.42 615.82 873.79 614.65 868.43 613.18 866.53 611.73 862.12 604.41 859.6 602.66 853.93 601.49 843.53 594.48 840.06 594.26 840.06 591.84 841.95 590.97 852.03 590.68 852.03 570.5 910.66 563.2 910.66 562.02 910.34 558.22 915.07 557.64 920.11 559.1 926.73 550.04 926.73 545.36 930.2 539.51 933.03 538.06 936.82 538.06 939.65 535.42 941.54 526.65 944.38 523.14 946.27 524.02 946.59 536.59 949.42 538.64 951.63 543.61 953.52 545.66 955.41 545.95 956.04 545.36 956.67 539.51 957.62 534.25 958.24 529.28 961.71 514.96 962.97 509.99 959.5 509.99 957.3 511.16 956.67 507.36 960.77 503.56 962.03 500.34 962.03 497.42 959.82 497.42 957.62 499.46 955.72 498.59 955.09 497.42 956.67 492.16 961.4 487.48 961.4 482.51 959.82 477.83 960.13 469.06 967.7 459.12 972.75 449.77 972.75 446.55 974.63 436.61 974 429.3 972.75 427.84 970.85 426.38 967.88 425.8 959.32 424.85 954.09 423.9 952.18 423.42 942.19 421.99 936.96 422.47 934.11 424.37 926.97 424.85 922.21 426.75 918.89 430.08 914.13 431.51 902.26 434.38 897.14 435.63 882.73 439.12 880 440.55 872.74 444.35 866.49 449.44 865.13 450.54 865.13 451.96 865.41 454.5 862.56 460.68 861.95 466.65 861.8 468.14 862.75 472.41 862.75 483.83 864.66 487.64 862.28 491.45 857.52 496.2 856.09 512.38 848.48 519.99 842.77 524.75 834.21 529.03 831.84 532.36 834.69 531.88 835.16 531.88 840.39 534.26 839.44 538.54 838.76 539.46 833.26 542.82 833.26 543.77 833.26 543.77 833.73 545.68 829.6 548.7 829.13 548.22 826.75 547.74 827.22 547.27 826.27 545.84 826.75 545.37 827.7 544.42 822.47 540.61 799.15 545.84 798.75 547.04 798.21 546.79 790.15 559.5 782.54 560.45 781.59 560.45 772.56 560.93 766.37 562.36 758.76 566.16 757.81 566.63 747.82 570.92 730.07 569.32 733.07 571.39 732.12 568.54 727.84 565.21 718.65 556.96 714.37 556.2 710.57 555.53 704.38 550.77 691.06 550.77 689.15 549.73 685.82 547.91 684.88 547.91 679.64 545.53 677.27 538.88 674.41 538.88 673.72 537.21 673.42 526.17 671.52 526.17 666.76 522.36 666.3 517.62 664.38 515.71 663.98 514.27 661.06 503.82 652.97 493.35 642.07 481.86 635.37 474.8 633.95 469.56 632.31 466.47 624.43 451.49 623.71 448.2 621.1 446.73 617.77 440.55 624.3 442.5 626.01 445.11 627.16 447.46 629.06 453.17 630.83 443.01 622.27 435.48 619.42 430.47 619.04 429.13 614.27 421.78 613.49 418.67 610.63 409.63 610.72 407.8 610.16 407.72 609.21 406.77 610.63 402.97 609.68 402.01 612.06 400.59 613.96 395.36 612.53 381.56 613.1 370.26 612.53 369.19 612.06 364.43 613.01 363.49 612.75 358.88 612.53 354.92 611.11 354.45 611.59 353.02 612.06 353.49 613.49 340.65 610.16 341.6 609.21 340.65 609.68 338.27 608.73 338.27 609.21 336.37 611.11 336.37 613.01 339.22 614.44 331.61 613.01 332.09 613.18 330.37 613.49 327.33 612.06 325.9 614.44 325.43 615.87 323.52 612.53 321.14 612.36 319.08 613.49 314.49 613.01 311.63 612.53 311.16 613.49 307.35 615.39 307.35 614.92 309.25 617.3 309.25 617.77 310.2 619.2 305.44 617.77 304.97 618.24 304.02 622.52 305.44 621.57 306.4 622.05 309.73 618.24 317.82 618.71 320.67 625.27 305.02"/><polyline class="cls-8" points="864.67 457 865.11 457.66 866.09 467.25 868.38 467.14 870.56 467.14 871.1 467.58 871.21 468.56 871.21 469.32 872.52 469.76 874.81 470.41 876.23 470.63 877.21 469.98 878.09 468.67 911.23 509.56 915.07 557.64"/><polyline class="cls-8" points="911.23 509.56 954.7 455.66 959.93 441.7 958.92 433.85 958.62 426.29 958.33 425.13 958.62 424.69"/><polyline class="cls-8" points="852.03 570.5 851.62 560.48 843.48 561.21 842.03 559.17 839.9 558.75 837.45 558.17 835.63 558.3 833.74 556.55 830.69 556.99 830.11 559.46 830.54 561.06 829.67 562.95 828.09 567.79 825.61 566.49 825.32 565.32 824.02 564.74 822.56 563 819.87 562.64 819.14 560.75 817.98 560.31 816.82 549.26 811.81 549.48 809.91 550.5 808.6 549.18 808.17 546.42 806.13 543.95"/><polyline class="cls-8" points="840.06 591.84 839.05 586.21 839.92 584.47 838.18 583.38 836 582.72 835.77 580.76 831.2 579.45 830.98 577.27 829.45 573.56 825.53 572.47 825.31 567.89 830.85 569.9 826.49 570.78 823.43 568.6 821.47 571.21 814.62 569.42 812.66 570.08 805.68 572.91 804.59 575.09 794.56 584.47 792.59 586.65 790.41 586.43 789.54 585.56 786.71 581.41 781.48 581.41 782.13 578.14 781.91 574 783 572.47 782.79 569.86 778.64 568.99 776.81 574.24 774.2 572.71 771.8 572.49 770.71 573.81 768.74 574.24 770.57 570.08 769.7 571.38 769.48 572.91 768.83 575.31 769.92 579.01 767.3 581.2 766.86 584.25 763.15 590.14 759.02 586.21 760.54 582.94 760.76 581.2 757.49 577.27 753.34 575.74 750.94 575.09 749.42 571.82 747.89 572.04 745.71 570.95 747.82 570.92 744.97 573.58 743.01 570.53 750.51 571.67 749.42 569.71"/><polyline class="cls-8" points="763.15 590.14 760.76 591.88 754.22 596.68 754.65 601.7 753.13 602.57 753.56 606.5 750.29 608.68 748.33 609.33 749.2 613.04 746.15 619.58 749.63 625.46 748.54 628.52 749.42 630.92 748.33 633.53"/><polyline class="cls-8" points="754.22 596.68 718.01 597.99 718.23 596.46 719.1 595.37 718.23 592.75 714.09 593.48 707.55 588.25 704.49 584.76 704.49 582.36 707.11 581.49 707.33 579.96 703.84 578.87 701.88 580.83 699.48 581.49 695.63 587.16 693.45 587.38 692.14 586.72 689.95 588.9 686.25 585.19 683.2 579.96 684.94 577.34 686.47 572.33 683.33 573.22 681.59 572.56 676.79 573.43 674.83 572.56 674.03 566.44 672.51 564.7 668.95 561.35 668.73 559.17 665.68 557.42 665.68 555.46 664.15 553.94 662.84 550.88 658.7 548.48 656.08 546.74 654.34 546.31 653.68 547.39 656.08 551.76 652.74 558.88 650.19 562.66 648.88 564.4 645.4 564.62 643.21 566.59 641.25 566.81 640.16 565.93 635.59 566.37 629.48 570.95 628.38 574.65 626.64 574.44 625.33 569.2 622.06 567.02 623.15 561.79 621.41 560.48 619.01 562.88 617.05 563.09 614.87 569.64 617.92 572.25 617.92 574.65 616.18 575.74 613.56 575.74 611.6 574 602 574.22 601.35 577.27 599.38 575.74 597.2 578.29 596.98 579.89 596.98 583.16 596.77 587.96 596.55 592.32 598.73 595.37 600.25 599.29 600.69 602.13 603.09 603.44 604.4 607.59 607.45 609.55 609.2 616.75 610.07 618.05 609.41 621.33 605.92 623.29 605.49 625.25 598.95 627.21 597.2 631.57 593.13 634.19"/><polyline class="cls-8" points="525.96 544.34 527.13 549.86 527.42 555.1 530.03 558.3 533.53 560.04 536.14 556.85 538.17 556.27 540.21 551.9 544.57 551.03 548.93 550.74 551.26 547.54 553.3 546.67 555.62 548.41 558.24 548.99 558.82 550.74 560.56 551.9 561.44 553.94 563.18 554.81 563.18 556.85 565.51 558.59 567.55 558.01 567.83 554.52 570.16 555.1 571.62 558.59 573.65 561.21 574.23 564.12 576.56 565.28 579.46 567.61 580.34 569.35 584.12 569.93 583.83 572.25 584.7 574.29 587.9 576.03 591.67 574.29 595.74 575.74 597.2 577.49"/><polyline class="cls-8" points="573.65 561.21 577.72 559.46 581.79 555.68 584.41 556.85 585.57 558.59 586.74 557.42 585.86 550.74 587.61 548.99 584.41 546.38 585.57 542.6 587.61 541.14 587.61 538.24 588.76 536.2 587.61 530.96 587.02 526.31 587.32 522.54 590.22 521.37 591.97 523.69 592.55 525.74 595.17 527.19 597.2 531.26 599.82 532.42 601.85 532.71 603.89 533.88 608.25 530.1 611.16 531.26 614.64 529.8 614.36 527.76 616.98 526.9 620.17 527.48 621.63 526.02 622.21 524.28 619.3 523.69 616.98 519.92 614.06 521.08 612.32 519.33 612.61 517.59 608.83 515.27 606.51 512.65 604.76 514.39 602.14 513.81 600.98 512.07 599.82 509.16 600.11 506.54 603.31 501.3 603.31 498.4 604.18 496.37 602.14 493.75 599.23 494.62 598.65 493.46 599.82 490.26 602.43 490.84 604.76 488.22 606.79 485.32 609.41 483.86 609.63 481.76 611.6 478.27 610.65 476.08 611.81 475.21 612.98 471.14 615.3 471.07 617.27 472.45 617.27 474.78 617.56 478.27 619.88 480.59 623.08 480.88 624.53 482.92 622.21 483.5 620.46 485.25 617.27 485.25 617.27 488.44 618.13 491.35 617.27 494.25 619.3 496 621.63 495.43 623.37 497.74 626.57 495.43 627.44 491.93 630.64 492.22 631.22 493.97 638.2 496.37 638.78 497.24 635 499.27 631.81 507.12 630.35 514.1 629.18 514.69 628.31 516.72 630.93 523.41 638.2 526.02 641.39 525.74 644.3 527.76 641.97 529.51 639.07 529.8 633.84 531.84 634.13 535.91 634.42 540.85 632.09 543.47 630.64 546.67 632.09 548.99 639.07 549.58 639.65 553.07 641.39 555.39 644.89 554.23 646.92 552.49 650.7 554.23 652.74 558.88"/><polyline class="cls-8" points="609.63 481.76 606.79 479.5 604.76 478.63 602.14 482.99 599.82 483.57 597.2 486.77 594.01 488.22 591.97 490.26 590.51 489.39 588.19 484.44 590.22 483.28 591.1 480.08 593.13 478.92 595.24 475.43 593.21 476.3 591.75 476.6 592.04 475.14 593.21 474.27 593.78 471.66 596.4 470.49 600.19 473.4 600.76 472.52 600.19 469.62 601.93 466.42 602.8 463.22 601.06 460.6 599.31 460.02 597.57 458.27 595.53 459.44 594.37 460.31 592.04 457.4 590.22 455.8 591.75 453.91 591.53 452.09 590.59 448.97 588.55 446.93 586.23 441.7 588.84 439.96 590.88 438.51 591.46 436.46 589.14 434.14 589.14 430.36 591.75 430.36 592.91 428.04 592.62 424.84 596.77 423.09 596.04 421.93 593.71 420.77 589.14 416.99 587.32 414.66"/><polyline class="cls-8" points="558.24 548.99 560.27 546.96 559.98 544.92 561.44 541.43 564.35 540.27 564.35 538.24 566.38 535.33 570.16 535.62 572.49 536.49 576.27 535.62 580.05 537.95 579.46 540.57 581.79 540.27 584.7 539.69 585.86 538.52 587.61 538.24"/><polyline class="cls-8" points="576.27 535.62 577.14 533 575.97 531.55 576.85 530.38 575.97 528.06 576.56 525.15 571.04 519.92 571.32 517.59 569.87 517.3 568.7 519.63 567.83 520.21 567.25 522.82 563.47 524.86 562.6 527.48 564.64 530.67 565.51 533 566.38 535.33"/><polyline class="cls-8" points="614.36 419.89 611.74 421.63 609.7 421.35 609.41 417.86 605.92 416.33 603.31 414.81 601.35 413.06 598.73 412.48 597.28 414.81 595.24 415.46 591.1 413.79 588.76 414.95 584.12 414.37 581.5 416.11 577.72 416.7 576.85 417.86 571.9 414.95 566.38 415.24 560.56 405.94 557.37 406.52 555.04 403.9 553.87 404.77 554.75 408.26 550.68 407.1 544.57 404.19 539.63 403.32 537.6 401.87 537.6 399.54 542.25 395.18 541.96 393.72 539.63 391.69 538.47 388.49 536.14 390.24 535.56 388.2 535.56 386.17 536.43 384.71 534.68 381.51 536.72 380.35 540.79 380.93 541.66 379.76 539.63 374.54 543.12 365.81 552.72 366.98 554.17 364.07 556.2 362.03 555.91 358.26 550.39 353.6 549.81 350.11 551.85 345.75 550.39 340.23 547.48 341.1 546.89 338.19 551.26 334.7 553.3 335.28 555.62 331.21 557.37 330.92 560.85 328.6 564.64 329.76 565.51 329.17 564.35 326.56 565.51 324.81 565.22 323.07 564.05 321.32 565.8 319.58 569.87 317.25 572.78 319.29 575.11 317.54 587.02 307.66 589.64 303.88 584.7 303.59 584.7 277.4"/><polyline class="cls-8" points="587.32 522.54 587.32 520.21 584.99 518.17 585.28 516.72 587.61 516.72 589.06 515.27 593.42 515.85 595.74 515.55 598.37 512.36 600.98 512.07"/><polyline class="cls-8" points="589.06 515.27 589.06 510.03 587.32 508.58 584.7 507.12 581.79 507.12 580.34 508.29 578.3 507.7 576.85 509.74 574.81 507.42 575.97 505.67 575.97 503.93 578.3 501.6 577.14 500.14 574.52 501.6 571.62 500.73 568.42 502.47 566.09 503.35 566.38 505.96 566.09 507.99 563.76 507.99 562.89 510.03 561.15 510.03 561.44 507.12 559.98 506.83 558.24 502.47 559.69 500.73 557.95 496.95 554.75 497.24 550.39 495.78 547.48 493.46 545.45 491.43 543.7 493.16 544.28 496.07 541.96 496.66 537.89 501.3 537.3 503.93 537.3 507.42 535.56 509.74 534.11 513.81 532.65 518.17 533.81 523.41 530.62 525.44 531.2 529.22 528.58 533.88 529.74 537.07 528.58 539.4 525.96 544.34 523.64 547.83 521.31 549.86 519.86 553.36 522.47 557.14 521.89 560.04 519.57 561.79 517.83 560.33 514.92 558.3 512.59 557.42 509.39 558.88 507.36 556.27 504.16 556.55 500.96 556.27 497.76 554.23 492.53 555.97 489.62 555.97 487.29 554.23 485.84 552.49 482.35 553.07 479.15 552.78 476.53 555.1 476.82 557.14 476.82 560.91 477.99 564.99 473.92 566.73 469.56 567.61 466.94 570.22 466.65 573.71 467.23 577.2"/><polyline class="cls-8" points="412.27 548.99 414.89 546.38 416.63 544.63 417.22 541.72 419.25 542.31 423.04 538.82 422.16 537.07 420.42 535.04 421.29 530.38 420.7 526.61 418.67 524.57 416.93 522.54 414.31 521.96 410.53 523.69 402.97 521.96 402.1 523.12 398.9 526.31 395.12 526.61 391.92 527.48 389.01 527.76 387.26 529.22 385.52 528.35 383.49 532.42"/><polyline class="cls-8" points="423.04 538.82 425.36 539.98 428.26 537.07 430.01 538.52 430.31 540.57 432.05 539.69 440.19 533.88 442.52 532.42 444.55 530.38 449.2 531.26 454.43 523.99 452.69 520.79 447.75 522.25 448.62 519.33 447.46 516.14 445.42 513.52 449.2 507.7 446 505.67 443.97 506.25 442.52 504.21 439.32 504.21 436.7 503.63 434.66 505.09 434.08 501.6 434.95 497.82 437.57 496.66 438.99 495.61 447.17 493.53 449.13 494.19 451.09 493.97 452.18 492.44 455.02 492 455.45 490.48 458.07 489.82 459.81 490.26 462.43 489.17 465.05 489.39 468.98 488.08 472.24 487.64 472.68 488.95 474.42 489.61 475.08 493.32 476.17 495.06 478.57 494.19 480.53 494.41 483.15 494.41 484.67 493.09 485.98 491.13 490.56 489.82 491 492.44 492.53 497.67 494.92 500.29 496.01 502.69 497.54 501.82 499.07 501.82 501.46 500.51 504.3 499.64 506.27 499.42 507.57 502.04 509.75 505.31 516.95 506.4 522.4 503.35 525.23 503.56 528.95 501.38 533.09 499.42 536.36 498.76"/><polyline class="cls-8" points="578.44 457.99 575.17 459.29 571.47 459.29 568.86 460.39 566.45 461.25 563.62 460.39 562.75 461.69 561.22 461.91 562.31 464.09 561.22 465.83 561.22 467.58 557.95 472.6 556.42 475.65 557.73 478.05 554.25 479.79 549.44 481.32 546.82 481.98 546.17 486.33 545.45 491.43"/><polyline class="cls-8" points="537.89 501.3 536.36 498.76 535.27 496.37 532.65 493.97 529.6 492.88 528.51 491.13 527.86 488.52 525.23 487.64 524.8 485.25 523.27 482.84 524.15 480.88 522.4 479.36 521.53 476.95 521.75 472.81 525.02 468.45 526.98 469.76 529.38 469.76 531.78 467.58 535.49 469.98 538.1 467.8 537.89 465.83 538.32 463.44 540.28 462.35 540.94 459.07 543.99 459.29 545.3 461.04 548.35 460.17 549.23 459.07 551.85 457.76 551.62 455.8 548.79 455.8 548.79 452.97 547.7 451.01 549 448.83 549.23 446.21 551.19 445.77 553.15 448.17 554.68 450.14 556.64 450.14 559.26 449.48 561.22 449.26 561.88 445.77 563.4 445.77 564.93 445.12 564.93 443.38 566.67 442.06 568.42 448.83 569.51 452.97 572.55 456.46 575.83 455.8 576.27 457.33 578.44 457.99 579.32 459.73 580.84 459.73 581.28 458.42 584.99 457.55 587.17 458.86 587.83 457.99 586.74 455.58 587.83 452.97 590 452.09 591.53 452.09"/><polyline class="cls-8" points="468.98 488.08 468.54 485.25 472.68 482.19 474.64 481.32 473.56 479.36 469.63 477.83 468.98 473.69 472.03 470.41 473.56 466.93 478.35 461.04 482.28 455.15 484.89 454.71 487.29 453.62 487.07 451.45 485.33 448.61 484.89 446.43 486.64 444.25 488.6 442.72 489.69 440.54 488.6 438.36 491.22 435.96 496.24 435.96 497.76 437.92 500.81 439.23 503.86 438.79 506.92 438.58 511.06 443.59 513.9 444.68 515.64 446.43 517.6 446.21 519.57 447.95 521.97 447.3 523.49 445.77 524.37 442.06 528.07 441.19 533.96 441.85 535.05 444.03 538.32 445.56 538.97 446.43 543.12 448.39 546.17 449.05 547.7 451.01"/><polyline class="cls-8" points="491.22 435.96 490.13 434.43 492.09 431.6 493.4 430.5 494.27 424.4 494.49 421.57 493.4 417.86 492.96 415.24 495.14 413.71 495.8 412.62 494.27 410.01 492.09 408.49 489.25 408.26 486.42 411.32 483.15 412.84 481.62 414.15 478.57 414.15 475.95 409.42 471.01 404.19 465.77 401 463.74 395.18 464.61 390.24 462.29 385.58 463.74 383.83 464.9 380.64 466.07 380.64 468.39 381.51 472.17 380.64 473.92 381.22 478.57 373.66 481.47 372.21 483.51 368.72 490.78 365.52 495.72 360.87 500.96 352.44 504.74 345.75 509.69 342.84 511.72 339.35 512.59 335.57 512.59 332.08 511.13 327.72 513.46 324.81 509.39 322.49 510.55 316.67 515.79 313.48 519.86 313.18 525.68 315.8 527.42 314.93 530.03 314.35 530.91 311.73 528 309.69 522.18 309.4 521.89 307.66 517.24 305.04 518.69 303.59 517.53 302.13 514.33 300.68 510.55 295.45 509.69 292.83 511.13 290.22 511.13 287.6 507.93 286.43 507.93 283.52 507.36 280.33 503.28 279.45 501.83 276.84 498.05 271.31 503.57 266.37 511.72 259.39 514.62 262.88 517.53 260.26 516.66 259.1 518.69 254.16 519.28 251.25 519.86 247.76 516.95 247.47 514.92 245.72 512.59 247.76 510.26 247.47 510.84 242.53 515.5 237.29 521.89 233.81 525.38 223.92 530.91 221.01 537.79 221.66"/><polyline class="cls-8" points="365.76 477.81 369.82 472.87 371.28 470.54 368.95 467.29 372.73 467.58 375.64 464.97 378.25 463.8 380.58 465.25 382.62 467 385.52 467.29 389.01 471.66 391.34 472.52 394.83 476.01 395.41 468.74 398.61 466.71 399.48 464.38 399.48 462.06 398.03 460.02 398.03 458.27 404.13 457.4 406.46 455.08 406.9 452.82 399.04 447.01 401.96 436.46 399.04 433.85 395.7 430.5 392.94 427.45 395.05 421.68 394.39 419.83 393.52 415.9 389.59 415.9 386.11 413.06 385.52 410.3 384.14 406.56 380.94 405.1 377.67 407.39 374.62 409.17 369.97 406.85 371.57 404.49 376.22 401.87 375.06 398.96 374.48 396.05 366.33 391.98 359.06 391.69 356.44 394.59 357.9 396.63 355.58 397.5 354.12 401.29 356.44 403.61 357.61 406.52 357.9 408.55 355.58 410.88 353.25 409.72 350.63 409.42 349.8 408.26 349.25 408.59 349.69 410.22 349.25 410.88 347.62 409.46"/><polyline class="cls-8" points="126.92 200.99 98.57 199.46 80.91 198.15"/><polyline class="cls-8" points="490.13 434.43 487 435.3 482.35 431.82 476.82 428.91 473.63 430.07 475.37 433.27 470.72 435.01 468.68 438.79 463.45 442.87 457.34 442 451.53 440.25 447.75 439.38 445.13 441.12 443.97 442.87 446.29 444.61 450.37 446.06 450.66 449.85 448.91 450.42 450.37 451.88 449.79 453.33 446.88 453.33 446.29 455.66 443.97 456.25 442.22 458.57 435.82 456.82 434.95 459.15 436.12 463.22 433.79 464.97 432.05 464.09 429.14 463.22 426.23 464.09 423.91 462.06 421.87 462.35 419.54 461.48 417.22 460.89 415.76 458.57 411.69 458.86 413.73 453.62 414.02 448.1 415.48 447.23 417.8 448.39 420.42 446.35 420.12 439.96 424.19 434.43 426.52 432.98 429.14 430.94 432.05 432.69 434.08 431.23 434.08 429.78 435.82 427.75 433.79 425.42 436.99 423.09 437.57 420.77 434.95 419.02 431.75 419.89 431.18 418.73 432.62 418.15 433.79 416.11 427.69 411.17 425.36 413.79 425.07 415.82 426.52 417.57 426.52 421.63 424.49 422.81 423.61 426.29 420.42 424.84 417.8 426.29 416.35 424.25 416.63 422.22 416.35 419.31 418.09 413.5 418.67 411.17 414.6 407.98 413.15 411.17 413.15 415.53 410.24 421.35 409.37 416.11 410.53 413.21 410.24 408.85 412.86 407.1 413.43 403.9 405.29 402.74 404.42 406.52 404.72 410.3 407.33 412.04 407.62 416.7 405.88 419.6 402.1 419.31 395.05 421.68 395.99 416.7 398.9 403.61 398.61 391.98 401.22 388.78 402.39 380.35 401.22 378.6 402.1 376.86 405.88 374.83 408.49 373.37 408.49 370.76 411.98 371.63 413.43 370.46 410.53 367.55 410.82 364.36 409.37 362.61 410.24 360.58 411.98 360.58 413.15 358.83 413.15 356.22 418.09 352.73 421.29 350.7 420.7 347.49 423.61 346.62 425.07 343.13 431.46 341.68 433.5 343.13 445.13 344.88 448.33 344 456.47 344 458.22 340.51 457.05 328.01 452.4 319"/><polyline class="cls-8" points="445.13 441.12 442.81 437.63 442.81 433.27 444.84 431.53 446.29 427.75 448.62 426.29 450.37 421.63 451.24 419.89 454.43 419.31 457.63 417.28 460.54 416.11 461.7 413.79 464.9 417.57 467.52 417.57 468.1 420.19 470.43 420.77 472.17 422.22 472.17 426.29 476.82 428.91"/><polyline class="cls-8" points="418.38 260.41 408.79 218.1 430.59 177.1"/><polyline class="cls-8" points="359.06 391.69 358.63 388.2 354.7 388.63 351.65 386.46 351.65 383.83 349.03 380.79 348.16 373.81 344.24 371.19 342.93 365.52 341.62 363.78 342.05 359.85 343.37 356.8 341.18 353.31 338.13 346.33 331.15 342.4 328.54 345.46 323.74 346.77 319.81 342.4 321.12 338.92 317.19 331.94 314.14 326.7 309.34 324.96 305.86 317.98 303.67 308.82 305.42 301.84 305.42 295.3 317.63 296.61 323.3 292.69 323.3 282.22 325.92 282.22 328.97 277.42 325.05 271.31 325.92 268.7 334.64 267.82 334.64 263.03 336.38 260.85 337.26 256.05 339.87 256.05 341.62 253.43 349.91 259.54 355.14 259.97 359.06 265.64 366.48 267.82 371.27 264.77 372.58 266.95 374.33 267.39 378.25 265.21 383.49 266.08 385.67 269.57 389.16 270.88 391.77 270.44 399.63 258.23 407.48 257.36 418.38 260.41 429.72 273.06 430.59 276.55 427.69 282.36 428.26 288.18 429.14 290.22 428.85 295.74 425.36 299.81 424.49 303.3 426.81 307.08 423.91 308.53 423.33 311.44 426.23 315.22 427.69 317.84 429.72 318.13 430.88 319.87 431.46 323.36 435.82 328.3 442.22 329.47 443.09 331.21 445.42 332.37 452.4 319 463.74 316.38 477.7 321.62 480.02 326.85 482.06 328.3 484.38 327.14 485.84 328.6 484.96 330.92 489.62 332.08 492.53 329.76 497.18 330.05 499.21 331.79 500.38 334.99 505.9 339.06 507.93 337.9 509.69 337.61 511.72 339.35 514.92 342.56 518.11 346.91 518.69 360 523.05 367.85 522.47 373.96 523.64 376.57 523.05 381.22 523.35 385.29 525.68 388.49 528.29 388.49 528.58 385.58 535.56 386.17"/><polyline class="cls-8" points="305.42 295.3 305.42 290.07 303.24 286.58 300.18 285.71 298.88 281.78 296.26 278.29 285.36 277.42 284.05 268.26 282.74 259.97 278.81 255.61 279.25 249.94 273.58 246.45 271.83 243.84 267.47 242.96 264.86 245.58 261.8 252.99 255.26 259.1 240.21 267.5"/><polyline class="cls-8" points="264.86 245.58 263.98 243.84 261.37 244.27 258.75 236.42 260.93 233.37 259.62 229.01 260.06 225.08 256.57 222.9 256.13 219.41 251.77 214.62 248.28 207.2 245.67 200.66 248.28 197.6 253.51 197.17 260.49 199.78 263.11 197.17 261.37 187.14 263.55 180.16 260.49 157.91 263.98 157.04 265.29 153.12 266.6 136.98 265.73 127.82 264.42 117.35 262.67 114.3 260.06 93.8 257.88 92.49 259.19 88.57 260.88 73.95"/><polyline class="cls-8" points="67.86 52.51 67.06 50.73 68.7 49.97 69.79 47.9 70.01 45.72 69.24 44.08 68.26 42.33 72.08 34.19 76.44 33.32 86.47 19.1"/></g></g></svg>